<?xml version="1.0" ?><!-- Uploaded to: SVG Repo, www.svgrepo.com, Generator: SVG Repo Mixer Tools -->
<svg width="800px" height="800px" viewBox="0 0 24 24" data-name="Layer 1" id="Layer_1" xmlns="http://www.w3.org/2000/svg"><title/><path d="M19,21H5V10c0-7,7-8,7-8h0s7,1,7,8Z" style="fill:#4b5661"/><path d="M7,16H17a4,4,0,0,1,4,4v1a0,0,0,0,1,0,0H3a0,0,0,0,1,0,0V20A4,4,0,0,1,7,16Z" style="fill:#4b5661"/><path d="M7,9.6603v2.645A1.68084,1.68084,0,0,0,8.6667,14h.9231l.7435,2h3.3334l.7435-2h.9231A1.68085,1.68085,0,0,0,17,12.3053V9.6603A4.62228,4.62228,0,0,0,12.4167,5h-.8334A4.62228,4.62228,0,0,0,7,9.6603Z" style="fill:#fff"/><path d="M8.1401,11.7697h0a1.851,1.851,0,0,1,0-1.4267c.1762-.4418.8659-.6614,1.4993-.7018a1.08647,1.08647,0,0,1,1.2405,1.0771c0,.688-.6453,1.0968-1.3218,1.2034-.7184.1125-1.2076.1364-1.418-.152Z" style="fill:#4b5661"/><path d="M15.86,11.7697h0c-.2104.2884-.7005.2645-1.4184.152-.6765-.1066-1.3218-.5154-1.3218-1.2034a1.08647,1.08647,0,0,1,1.2405-1.0771c.6333.0404,1.3235.26,1.4997.7018A1.85292,1.85292,0,0,1,15.86,11.7697Z" style="fill:#4b5661"/><path d="M11.1456,12.9644h0a4.52719,4.52719,0,0,1,.5201-1.0246.36948.36948,0,0,1,.6315,0,4.51947,4.51947,0,0,1,.5205,1.0246.36955.36955,0,0,1-.3621.4663c-.3617,0-.2752-.4197-.4613-.4164-.1956.0036-.136.4164-.487.4164a.369.369,0,0,1-.3617-.4663Z" style="fill:#4b5661"/><polygon points="18 8 6 8 7 7 10 4 14 4 17 6 18 8" style="fill:#4b5661"/></svg>