<?xml version="1.0" ?><!-- Uploaded to: SVG Repo, www.svgrepo.com, Generator: SVG Repo Mixer Tools -->
<svg width="800px" height="800px" viewBox="0 0 24 24" data-name="Layer 1" id="Layer_1" xmlns="http://www.w3.org/2000/svg"><title/><path d="M19,20H5V9a7,7,0,0,1,7-7h0a7,7,0,0,1,7,7Z" style="fill:#b3c1c9"/><path d="M5,18H19a2,2,0,0,1,2,2v2a0,0,0,0,1,0,0H3a0,0,0,0,1,0,0V20A2,2,0,0,1,5,18Z" style="fill:#738394"/><rect height="2" style="fill:#fff" width="8" x="8" y="8"/><rect height="2" style="fill:#fff" width="8" x="8" y="12"/></svg>