<?xml version="1.0" ?><!-- Uploaded to: SVG Repo, www.svgrepo.com, Generator: SVG Repo Mixer Tools -->
<svg width="800px" height="800px" viewBox="0 0 24 24" data-name="Layer 1" id="Layer_1" xmlns="http://www.w3.org/2000/svg"><title/><path d="M13.1287,8.10417l1.1333,1.044,1.3365-1.472L14.087,6.66667A3.4056,3.4056,0,0,1,13.1287,8.10417Z" style="fill:#4eba94"/><path d="M13.49,6.49987c.4234.68211,1.2846.606,1.2362,1.09075a1.39323,1.39323,0,0,0,1.1369,1.305c.7341-.17273.2806-1.31708,1.7122-.3204a1.92006,1.92006,0,0,0-.0281-2.03308,1.35043,1.35043,0,0,0-.061-1.0148A2.2848,2.2848,0,0,0,15.1867,4.3426C13.8157,4.4478,13.0537,5.79694,13.49,6.49987Z" style="fill:#4eba94"/><path d="M16.6476,6.75755h0c.2762-.0953-.0703-1.0997-.3466-1.0044h0a.5328.5328,0,0,0-.3289.67547h0A.53285.53285,0,0,0,16.6476,6.75755Z" style="fill:#fff"/><path d="M12.1574,19.7647c1.0218-1.1569,1.8428-2.1565,1.8463-2.1605L12.8578,16.25a15.12128,15.12128,0,0,1-1.7887,2.5971C10.6979,19.267,11.9107,20.0451,12.1574,19.7647Z" style="fill:#4eba94"/><path d="M12.3542,19.4792l-1.0857-.9147L9.5882,20.5294,11.9176,22.6l.6589-.6A2.07152,2.07152,0,0,1,12.3542,19.4792Z" style="fill:#4b5661"/><path d="M4.9828,18.2083,21.572,12.6665a.74987.74987,0,0,0-.4941-1.416L4.6495,17.2083C4.2589,17.3446,4.9008,18.2371,4.9828,18.2083Z" style="fill:#d9925f"/><path d="M2.2731,16.3368a.3253.3253,0,0,0-.028.1217A5.10759,5.10759,0,0,0,4.878,21.3081a.3279.3279,0,0,0,.4792-.2231,3.45043,3.45043,0,0,1,1.2991-2.1059l.0042-.0032.5142-.3898a.32769.32769,0,0,0,.1162-.3544l-.6879-2.324a.3271.3271,0,0,0-.3135-.2344c-.013-.0002-.3827.0044-.6534.0077l-.2777.0035a8.93852,8.93852,0,0,0-2.8971.4772A.32807.32807,0,0,0,2.2731,16.3368Z" style="fill:#ffd58c"/><path d="M5.9307,15.6698,7.0838,18.673l.6172-.5077a.80917.80917,0,0,0,.2414-.9149l-.4217-1.0982a.809.809,0,0,0-.7916-.5183Z" style="fill:#fa6d62"/><path d="M17.1004,13.1035c-.1561.377.1506.7123.5251,1.017a.84793.84793,0,0,0,1.2597-.1832c.1069-.234-.5221-.4998-.1784-.6717.3069-.1534-.2569-.4371-.516-.5101C17.3943,12.5313,17.2565,12.7266,17.1004,13.1035Z" style="fill:#4eba94"/><path d="M13.5453,7.625l1.2465,1.04932,2.7275,3.87258s-.3569,1.015-.5364.9531L14,11l-1.0793.4308,2.0539,2.3807a2.14527,2.14527,0,0,1,.2029,2.5255l-1.5613,2.538L8.7433,14.548a1.99108,1.99108,0,0,1,.0585-3.0276Z" style="fill:#4b5661"/><path d="M7.337,11.9375c-3-.9584-3.3542-3.25-4.9375-2.70833,1.8542-2.41665,4.4167-.14584,6.9375-.14584A6.15264,6.15264,0,0,0,13.5454,7.625a4.07768,4.07768,0,0,1,1.2464,1.04932c.0262.0545.0556.1181.0832.17682C13.5036,10.8197,10.5746,12.9717,7.337,11.9375Z" style="fill:#4b5661"/><path d="M12.3958,6.70833,17.9,4.7l-.9239-.63963-.7696-.04978-.2693-.66943L14.559,2.387A2.17651,2.17651,0,0,0,13.3201,2H8v.3l3.9188,1.25263a.97684.97684,0,0,1,.6753,1.02078l.3844.94659-.5353.67832Z" style="fill:#4b5661"/><path d="M17.3917,4.34814,15.9203,3.32947,12.5929,4.55859c-.0004.00507.0016.00977.0012.01484l-.1497,1.61175Z" style="fill:#ffab66"/><path d="M12.6533,8.12793a.74981.74981,0,0,1-.4131-1.37647l5.2754-3.46923a.74986.74986,0,1,1,.8242,1.25293L13.0645,8.00439A.74563.74563,0,0,1,12.6533,8.12793Z" style="fill:#4b5661"/></svg>