<?xml version="1.0" ?>
<!-- Uploaded to: SVG Repo, www.svgrepo.com, Generator: SVG Repo Mixer Tools -->
<svg width="800px" height="800px" viewBox="0 0 64 64" version="1.1" xml:space="preserve" xmlns="http://www.w3.org/2000/svg" xmlns:xlink="http://www.w3.org/1999/xlink">
<style type="text/css">
	.st0{fill:#FFEEA9;}
	.st1{fill:#D32436;}
	.st2{fill:#8DD1D3;}
	.st3{fill:#330D00;}
	.st4{fill:none;stroke:#330D00;stroke-linecap:round;stroke-linejoin:round;stroke-miterlimit:10;}
</style>
<g id="_x34_0-Id_Card"/>
<g id="_x33_9-Formula"/>
<g id="_x33_8-Elbow"/>
<g id="_x33_7-Diploma"/>
<g id="_x33_6-Laptop"/>
<g id="_x33_5-Brush"/>
<g id="_x33_4-Baseball"/>
<g id="_x33_3-Student"/>
<g id="_x33_2-Highlighter"/>
<g id="_x33_1-Ruler"/>
<g id="_x33_0-Caliper"/>
<g id="_x32_9-Ruler_Elbow"/>
<g id="_x32_8-Abacus">
<g>
<g>
<rect class="st2" height="8.8" width="53" x="5.5" y="54.1"/>
</g>
<g>
<path class="st0" d="M16.6,54.1H9.9V2.6c0-0.8,0.7-1.5,1.5-1.5h3.6c0.8,0,1.5,0.7,1.5,1.5V54.1z"/>
</g>
<g>
<path class="st0" d="M54.1,54.1h-6.6V2.6c0-0.8,0.7-1.5,1.5-1.5h3.6c0.8,0,1.5,0.7,1.5,1.5V54.1z"/>
</g>
<g>
<path class="st1" d="M29.8,40.8v4.4c0,1.2-1,2.2-2.2,2.2s-2.2-1-2.2-2.2v-4.4c0-1.2,1-2.2,2.2-2.2S29.8,39.6,29.8,40.8z"/>
</g>
<g>
<path class="st1" d="M43,40.8v4.4c0,1.2-1,2.2-2.2,2.2c-1.2,0-2.2-1-2.2-2.2v-4.4c0-1.2,1-2.2,2.2-2.2C42,38.6,43,39.6,43,40.8z"/>
</g>
<g>
<path class="st1" d="M38.6,29.8v4.4c0,1.2-1,2.2-2.2,2.2c-1.2,0-2.2-1-2.2-2.2v-4.4c0-1.2,1-2.2,2.2-2.2     C37.6,27.6,38.6,28.6,38.6,29.8z"/>
</g>
<g>
<path class="st1" d="M43,18.8v4.4c0,1.2-1,2.2-2.2,2.2c-1.2,0-2.2-1-2.2-2.2v-4.4c0-1.2,1-2.2,2.2-2.2C42,16.6,43,17.5,43,18.8z"/>
</g>
<g>
<path class="st1" d="M29.8,18.8v4.4c0,1.2-1,2.2-2.2,2.2s-2.2-1-2.2-2.2v-4.4c0-1.2,1-2.2,2.2-2.2S29.8,17.5,29.8,18.8z"/>
</g>
<g>
<path class="st1" d="M38.6,7.7v4.4c0,1.2-1,2.2-2.2,2.2c-1.2,0-2.2-1-2.2-2.2V7.7c0-1.2,1-2.2,2.2-2.2     C37.6,5.5,38.6,6.5,38.6,7.7z"/>
</g>
<g>
<path class="st1" d="M25.4,7.7v4.4c0,1.2-1,2.2-2.2,2.2c-1.2,0-2.2-1-2.2-2.2V7.7c0-1.2,1-2.2,2.2-2.2     C24.4,5.5,25.4,6.5,25.4,7.7z"/>
</g>
<g>
<path class="st1" d="M25.4,29.8v4.4c0,1.2-1,2.2-2.2,2.2c-1.2,0-2.2-1-2.2-2.2v-4.4c0-1.2,1-2.2,2.2-2.2     C24.4,27.6,25.4,28.6,25.4,29.8z"/>
</g>
<g>
<path class="st3" d="M58.5,53h-3.3V4.4c0-2.4-2-4.4-4.4-4.4c-2.4,0-4.4,2-4.4,4.4v4.4h-6.6V7.7c0-1.8-1.5-3.3-3.3-3.3     c-1.8,0-3.3,1.5-3.3,3.3v1.1h-6.6V7.7c0-1.8-1.5-3.3-3.3-3.3c-1.8,0-3.3,1.5-3.3,3.3v1.1h-2.2V4.4c0-2.4-2-4.4-4.4-4.4     S8.8,2,8.8,4.4V53H5.5c-0.6,0-1.1,0.5-1.1,1.1v8.8c0,0.6,0.5,1.1,1.1,1.1h53c0.6,0,1.1-0.5,1.1-1.1v-8.8     C59.6,53.5,59.1,53,58.5,53z M48.6,4.4c0-1.2,1-2.2,2.2-2.2s2.2,1,2.2,2.2V53h-4.4V4.4z M17.7,53v-8.8h6.6v1.1     c0,1.8,1.5,3.3,3.3,3.3c1.8,0,3.3-1.5,3.3-3.3v-1.1h6.6v1.1c0,1.8,1.5,3.3,3.3,3.3s3.3-1.5,3.3-3.3v-1.1h2.2V53H17.7z M28.7,23.2     c0,0.6-0.5,1.1-1.1,1.1c-0.6,0-1.1-0.5-1.1-1.1v-4.4c0-0.6,0.5-1.1,1.1-1.1c0.6,0,1.1,0.5,1.1,1.1V23.2z M27.6,26.5     c1.8,0,3.3-1.5,3.3-3.3v-1.1h6.6v1.1c0,1.8,1.5,3.3,3.3,3.3s3.3-1.5,3.3-3.3v-1.1h2.2v8.8h-6.6v-1.1c0-1.8-1.5-3.3-3.3-3.3     c-1.8,0-3.3,1.5-3.3,3.3v1.1h-6.6v-1.1c0-1.8-1.5-3.3-3.3-3.3c-1.8,0-3.3,1.5-3.3,3.3v1.1h-2.2v-8.8h6.6v1.1     C24.3,25,25.8,26.5,27.6,26.5z M41.9,23.2c0,0.6-0.5,1.1-1.1,1.1s-1.1-0.5-1.1-1.1v-4.4c0-0.6,0.5-1.1,1.1-1.1s1.1,0.5,1.1,1.1     V23.2z M39.7,40.8c0-0.6,0.5-1.1,1.1-1.1s1.1,0.5,1.1,1.1v4.4c0,0.6-0.5,1.1-1.1,1.1s-1.1-0.5-1.1-1.1V40.8z M40.8,37.5     c-1.8,0-3.3,1.5-3.3,3.3v1.1h-6.6v-1.1c0-1.8-1.5-3.3-3.3-3.3c-1.8,0-3.3,1.5-3.3,3.3v1.1h-6.6v-8.8h2.2v1.1     c0,1.8,1.5,3.3,3.3,3.3c1.8,0,3.3-1.5,3.3-3.3v-1.1h6.6v1.1c0,1.8,1.5,3.3,3.3,3.3c1.8,0,3.3-1.5,3.3-3.3v-1.1h6.6v8.8h-2.2v-1.1     C44.1,39,42.7,37.5,40.8,37.5z M26.5,40.8c0-0.6,0.5-1.1,1.1-1.1c0.6,0,1.1,0.5,1.1,1.1v4.4c0,0.6-0.5,1.1-1.1,1.1     c-0.6,0-1.1-0.5-1.1-1.1V40.8z M24.3,34.2c0,0.6-0.5,1.1-1.1,1.1c-0.6,0-1.1-0.5-1.1-1.1v-4.4c0-0.6,0.5-1.1,1.1-1.1     c0.6,0,1.1,0.5,1.1,1.1V34.2z M37.5,34.2c0,0.6-0.5,1.1-1.1,1.1c-0.6,0-1.1-0.5-1.1-1.1v-4.4c0-0.6,0.5-1.1,1.1-1.1     c0.6,0,1.1,0.5,1.1,1.1V34.2z M35.3,7.7c0-0.6,0.5-1.1,1.1-1.1c0.6,0,1.1,0.5,1.1,1.1v4.4c0,0.6-0.5,1.1-1.1,1.1     c-0.6,0-1.1-0.5-1.1-1.1V7.7z M22.1,7.7c0-0.6,0.5-1.1,1.1-1.1c0.6,0,1.1,0.5,1.1,1.1v4.4c0,0.6-0.5,1.1-1.1,1.1     c-0.6,0-1.1-0.5-1.1-1.1V7.7z M19.9,11v1.1c0,1.8,1.5,3.3,3.3,3.3c1.8,0,3.3-1.5,3.3-3.3V11h6.6v1.1c0,1.8,1.5,3.3,3.3,3.3     c1.8,0,3.3-1.5,3.3-3.3V11h6.6v8.8h-2.2v-1.1c0-1.8-1.5-3.3-3.3-3.3s-3.3,1.5-3.3,3.3v1.1h-6.6v-1.1c0-1.8-1.5-3.3-3.3-3.3     c-1.8,0-3.3,1.5-3.3,3.3v1.1h-6.6V11H19.9z M11,4.4c0-1.2,1-2.2,2.2-2.2s2.2,1,2.2,2.2V53H11V4.4z M57.4,61.8H6.6v-6.6h3.3h6.6     h30.9h6.6h3.3V61.8z"/>
</g>
</g>
</g>
<g id="_x32_7-Id_Card"/>
<g id="_x32_6-Eraser"/>
<g id="_x32_5-Pencil"/>
<g id="_x32_4-Ink"/>
<g id="_x32_3-Graduation_Cap"/>
<g id="_x32_2-_Sling_Bag"/>
<g id="_x32_1-Rugby_Ball"/>
<g id="_x32_0-Clock"/>
<g id="_x31_9-Certificate"/>
<g id="_x31_8-Idea"/>
<g id="_x31_7-Bookshelf"/>
<g id="_x31_6-Formula"/>
<g id="_x31_5-Bell"/>
<g id="_x31_4-Magnifying_Glass"/>
<g id="_x31_3-Calculator"/>
<g id="_x31_2-Eyeglasses"/>
<g id="_x31_1-Bus"/>
<g id="_x31_0-Trophy"/>
<g id="_x39_-Globe"/>
<g id="_x38_-Basket_Ball"/>
<g id="_x37_-Pen"/>
<g id="_x36_-Board"/>
<g id="_x35_-Bag"/>
<g id="_x34_-Exam"/>
<g id="_x33_-Book"/>
<g id="_x32_-Ruler"/>
<g id="_x31_-Building"/>
</svg>