<?xml version="1.0" ?>
<!-- Uploaded to: SVG Repo, www.svgrepo.com, Generator: SVG Repo Mixer Tools -->
<svg width="800px" height="800px" viewBox="0 0 64 64" version="1.1" xml:space="preserve" xmlns="http://www.w3.org/2000/svg" xmlns:xlink="http://www.w3.org/1999/xlink">
<style type="text/css">
	.st0{fill:#FFEEA9;}
	.st1{fill:#D32436;}
	.st2{fill:#8DD1D3;}
	.st3{fill:#330D00;}
	.st4{fill:none;stroke:#330D00;stroke-linecap:round;stroke-linejoin:round;stroke-miterlimit:10;}
</style>
<g id="_x34_0-Id_Card"/>
<g id="_x33_9-Formula"/>
<g id="_x33_8-Elbow"/>
<g id="_x33_7-Diploma"/>
<g id="_x33_6-Laptop"/>
<g id="_x33_5-Brush"/>
<g id="_x33_4-Baseball"/>
<g id="_x33_3-Student"/>
<g id="_x33_2-Highlighter"/>
<g id="_x33_1-Ruler"/>
<g id="_x33_0-Caliper"/>
<g id="_x32_9-Ruler_Elbow"/>
<g id="_x32_8-Abacus"/>
<g id="_x32_7-Id_Card"/>
<g id="_x32_6-Eraser"/>
<g id="_x32_5-Pencil"/>
<g id="_x32_4-Ink"/>
<g id="_x32_3-Graduation_Cap"/>
<g id="_x32_2-_Sling_Bag"/>
<g id="_x32_1-Rugby_Ball"/>
<g id="_x32_0-Clock"/>
<g id="_x31_9-Certificate"/>
<g id="_x31_8-Idea"/>
<g id="_x31_7-Bookshelf"/>
<g id="_x31_6-Formula"/>
<g id="_x31_5-Bell"/>
<g id="_x31_4-Magnifying_Glass"/>
<g id="_x31_3-Calculator"/>
<g id="_x31_2-Eyeglasses"/>
<g id="_x31_1-Bus"/>
<g id="_x31_0-Trophy"/>
<g id="_x39_-Globe"/>
<g id="_x38_-Basket_Ball"/>
<g id="_x37_-Pen"/>
<g id="_x36_-Board"/>
<g id="_x35_-Bag">
<g>
<g>
<path class="st1" d="M51.9,30.5v14.8H12.1V30.5c0-3.4,0.8-6.6,2.3-9.5c0.1-0.3,0.3-0.5,0.4-0.8C18.2,14.1,24.7,10,32,10     s13.8,4.1,17.2,10.2c0.1,0.2,0.3,0.5,0.4,0.8C51,23.8,51.9,27,51.9,30.5z"/>
</g>
<g>
<path class="st2" d="M49.6,21c-0.1,0.3-0.3,0.5-0.4,0.8c-3.1,5.5-8.6,9.4-15,10.1c0-1.1-1-2.1-2.2-2.1s-2.1,0.9-2.2,2.1     c-6.4-0.7-11.9-4.6-15-10.1c-0.1-0.2-0.3-0.5-0.4-0.8c0.1-0.3,0.3-0.5,0.4-0.8C18.2,14.1,24.7,10,32,10s13.8,4.1,17.2,10.2     C49.3,20.5,49.5,20.7,49.6,21z"/>
</g>
<g>
<path class="st0" d="M7.7,60.7h4.4V45.2H9.7c-1.1,0-2,0.9-2,2V60.7z"/>
</g>
<g>
<path class="st0" d="M56.3,60.7h-4.4V45.2h2.4c1.1,0,2,0.9,2,2V60.7z"/>
</g>
<g>
<path class="st0" d="M34.2,32c0,1.2-1,2.2-2.2,2.2c-1.2,0-2.2-1-2.2-2.2c0,0,0-0.1,0-0.1c0-1.1,1-2.1,2.2-2.1s2.1,0.9,2.2,2.1     C34.2,31.9,34.2,32,34.2,32z"/>
</g>
<g>
<rect class="st2" height="17.7" width="39.7" x="12.1" y="45.2"/>
</g>
<g>
<path class="st3" d="M53,44.2V30.5c0-3.5-0.8-6.9-2.4-9.9c-0.1-0.2-0.2-0.5-0.5-0.9c-2.8-5-7.4-8.6-12.6-10V5.5     c0-1.5-0.6-2.9-1.6-3.9C34.9,0.6,33.5,0,32,0c-3,0-5.5,2.5-5.5,5.5v4.1c-5.3,1.5-9.9,5.1-12.7,10.2c-0.1,0.2-0.3,0.5-0.3,0.7     c0,0,0,0,0,0c0,0,0,0,0,0.1c0,0,0,0,0,0c-1.5,3-2.4,6.4-2.4,9.9v13.8c-2.5,0.5-4.4,2.7-4.4,5.4v11c0,0.6,0.5,1.1,1.1,1.1H11v1.1     c0,0.6,0.5,1.1,1.1,1.1h39.7c0.6,0,1.1-0.5,1.1-1.1v-1.1h3.3c0.6,0,1.1-0.5,1.1-1.1v-11C57.4,47,55.5,44.8,53,44.2z M28.7,5.5     c0-1.8,1.5-3.3,3.3-3.3c0.9,0,1.7,0.3,2.3,1c0.6,0.6,1,1.4,1,2.3v3.3h-6.6V5.5z M32,11.1c6.7,0,12.9,3.7,16.3,9.8     c0,0,0,0.1,0,0.1c0,0.1-0.1,0.1-0.1,0.2c-2.8,5-7.7,8.5-13.2,9.4c0,0,0,0,0,0c-0.1-0.2-0.3-0.5-0.4-0.7c0-0.1-0.1-0.1-0.1-0.2     c-0.2-0.2-0.4-0.3-0.6-0.5c0,0,0,0-0.1-0.1c-0.2-0.1-0.5-0.3-0.7-0.4c-0.1,0-0.1,0-0.2-0.1c-0.3-0.1-0.6-0.1-0.9-0.1     c-0.3,0-0.6,0.1-0.9,0.1c-0.1,0-0.1,0-0.2,0.1c-0.3,0.1-0.5,0.2-0.7,0.4c0,0,0,0-0.1,0.1c-0.2,0.1-0.4,0.3-0.6,0.5     c0,0.1-0.1,0.1-0.1,0.2c-0.2,0.2-0.3,0.4-0.4,0.7c0,0,0,0,0,0c-5.5-0.9-10.4-4.4-13.3-9.6c0,0,0-0.1-0.1-0.1     c0-0.1,0.1-0.1,0.1-0.2C19.1,14.8,25.3,11.1,32,11.1z M33.1,32.1c0,0.6-0.5,1-1.1,1c-0.6,0-1.1-0.5-1.1-1c0-0.1,0-0.1,0-0.2     c0-0.6,0.5-1,1.1-1s1.1,0.5,1.1,1C33.1,32,33.1,32,33.1,32.1z M13.2,30.5c0-2.4,0.4-4.8,1.3-7.1c3.2,5,8.4,8.5,14.2,9.4     c0.4,1.4,1.7,2.5,3.2,2.5s2.8-1.1,3.2-2.5c5.8-0.9,10.9-4.3,14.2-9.4c0.9,2.2,1.3,4.6,1.3,7.1v13.7H13.2V30.5z M8.8,59.6v-9.9     c0-1.4,0.9-2.7,2.2-3.1v13.1H8.8z M50.8,61.8H13.2v-1.1V46.3h37.5v14.3V61.8z M55.2,59.6H53V46.5c1.3,0.5,2.2,1.7,2.2,3.1V59.6z"/>
</g>
</g>
</g>
<g id="_x34_-Exam"/>
<g id="_x33_-Book"/>
<g id="_x32_-Ruler"/>
<g id="_x31_-Building"/>
</svg>