<?xml version="1.0" ?>
<!-- Uploaded to: SVG Repo, www.svgrepo.com, Generator: SVG Repo Mixer Tools -->
<svg width="800px" height="800px" viewBox="0 0 64 64" version="1.1" xml:space="preserve" xmlns="http://www.w3.org/2000/svg" xmlns:xlink="http://www.w3.org/1999/xlink">
<style type="text/css">
	.st0{fill:#FFEEA9;}
	.st1{fill:#D32436;}
	.st2{fill:#8DD1D3;}
	.st3{fill:#330D00;}
	.st4{fill:none;stroke:#330D00;stroke-linecap:round;stroke-linejoin:round;stroke-miterlimit:10;}
</style>
<g id="_x34_0-Id_Card"/>
<g id="_x33_9-Formula"/>
<g id="_x33_8-Elbow"/>
<g id="_x33_7-Diploma"/>
<g id="_x33_6-Laptop"/>
<g id="_x33_5-Brush"/>
<g id="_x33_4-Baseball">
<g>
<g>
<path class="st0" d="M43,32c0,9,3.8,17,9.9,22.7c-5.5,5.1-12.9,8.2-21,8.2s-15.4-3.1-21-8.2C17.1,49,21,41,21,32S17.1,15,11,9.3     c5.5-5.1,12.9-8.2,21-8.2s15.4,3.1,21,8.2C46.9,15,43,23,43,32z"/>
</g>
<g>
<ellipse class="st2" cx="53" cy="32" rx="9.9" ry="22.7"/>
</g>
<g>
<ellipse class="st2" cx="11" cy="32" rx="9.9" ry="22.7"/>
</g>
<g>
<path class="st3" d="M53.7,8.5C47.8,3,40.1,0,32,0S16.2,3,10.3,8.5C3.7,14.5,0,23.1,0,32s3.7,17.5,10.3,23.5     C16.2,61,23.9,64,32,64s15.8-3,21.7-8.5C60.3,49.5,64,40.9,64,32S60.3,14.5,53.7,8.5z M53,53.1c-0.3-0.3-0.5-0.5-0.8-0.8     c-0.3-0.3-0.7-0.7-1-1c-0.3-0.4-0.7-0.8-1-1.3c-0.1-0.1-0.1-0.2-0.2-0.3l0.9-0.6c0.5-0.3,0.6-1,0.3-1.5c-0.3-0.5-1-0.6-1.5-0.3     L48.8,48c-0.1-0.1-0.2-0.3-0.3-0.4c-0.2-0.4-0.5-0.8-0.7-1.2c-0.3-0.5-0.5-1-0.7-1.5c0-0.1-0.1-0.2-0.1-0.2l1-0.4     c0.6-0.2,0.8-0.9,0.6-1.4c-0.2-0.6-0.9-0.8-1.4-0.6l-1,0.4c-0.1-0.2-0.1-0.3-0.2-0.5c-0.1-0.4-0.3-0.8-0.4-1.2     c-0.2-0.6-0.3-1.1-0.5-1.7c0,0,0-0.1,0-0.1l1-0.2c0.6-0.1,1-0.7,0.9-1.3c-0.1-0.6-0.7-1-1.3-0.9l-1,0.2c0-0.3-0.1-0.6-0.1-0.8     c0-0.3-0.1-0.7-0.2-1c-0.1-0.6-0.1-1.3-0.1-1.9h1c0.6,0,1.1-0.5,1.1-1.1s-0.5-1.1-1.1-1.1h-1c0-0.6,0-1.3,0.1-1.9     c0-0.3,0.1-0.7,0.2-1c0-0.3,0.1-0.6,0.1-0.8l1,0.2c0.1,0,0.1,0,0.2,0c0.5,0,1-0.4,1.1-0.9c0.1-0.6-0.3-1.2-0.9-1.3L45,25     c0,0,0-0.1,0-0.1c0.1-0.6,0.3-1.2,0.5-1.7c0.1-0.4,0.3-0.8,0.4-1.2c0.1-0.2,0.1-0.3,0.2-0.5l1,0.4c0.1,0.1,0.3,0.1,0.4,0.1     c0.4,0,0.8-0.3,1-0.7c0.2-0.6,0-1.2-0.6-1.4l-1-0.4c0-0.1,0.1-0.2,0.1-0.2c0.2-0.5,0.5-1,0.7-1.5c0.2-0.4,0.5-0.8,0.7-1.2     c0.1-0.1,0.2-0.3,0.3-0.4l0.9,0.6c0.2,0.1,0.4,0.2,0.6,0.2c0.4,0,0.7-0.2,0.9-0.5c0.3-0.5,0.2-1.2-0.3-1.5l-0.9-0.6     c0.1-0.1,0.1-0.2,0.2-0.3c0.3-0.4,0.6-0.9,1-1.3c0.3-0.4,0.6-0.7,1-1c0.2-0.3,0.5-0.5,0.8-0.8c5.6,5.6,8.8,13.2,8.8,21.1     S58.6,47.6,53,53.1z M11,10.9c0.3,0.3,0.5,0.5,0.8,0.8c0.3,0.3,0.7,0.7,1,1c0.3,0.4,0.7,0.8,1,1.3c0.1,0.1,0.1,0.2,0.2,0.3     l-0.9,0.6c-0.5,0.3-0.6,1-0.3,1.5c0.2,0.3,0.6,0.5,0.9,0.5c0.2,0,0.4-0.1,0.6-0.2l0.9-0.6c0.1,0.1,0.2,0.3,0.3,0.4     c0.2,0.4,0.5,0.8,0.7,1.2c0.3,0.5,0.5,1,0.7,1.5c0,0.1,0.1,0.2,0.1,0.2l-1,0.4c-0.6,0.2-0.8,0.9-0.6,1.4c0.2,0.4,0.6,0.7,1,0.7     c0.1,0,0.3,0,0.4-0.1l1-0.4c0.1,0.2,0.1,0.3,0.2,0.5c0.1,0.4,0.3,0.8,0.4,1.2c0.2,0.6,0.3,1.1,0.5,1.7c0,0,0,0.1,0,0.1l-1,0.2     c-0.6,0.1-1,0.7-0.9,1.3c0.1,0.5,0.6,0.9,1.1,0.9c0.1,0,0.1,0,0.2,0l1-0.2c0,0.3,0.1,0.6,0.1,0.8c0,0.3,0.1,0.7,0.2,1     c0.1,0.6,0.1,1.3,0.1,1.9h-1c-0.6,0-1.1,0.5-1.1,1.1s0.5,1.1,1.1,1.1h1c0,0.6,0,1.3-0.1,1.9c0,0.3-0.1,0.7-0.2,1     c0,0.3-0.1,0.6-0.1,0.8l-1-0.2c-0.6-0.1-1.2,0.3-1.3,0.9c-0.1,0.6,0.3,1.2,0.9,1.3l1,0.2c0,0,0,0.1,0,0.1     c-0.1,0.6-0.3,1.2-0.5,1.7c-0.1,0.4-0.3,0.8-0.4,1.2c-0.1,0.2-0.1,0.3-0.2,0.5l-1-0.4c-0.6-0.2-1.2,0-1.4,0.6     c-0.2,0.6,0,1.2,0.6,1.4l1,0.4c0,0.1-0.1,0.2-0.1,0.2c-0.2,0.5-0.5,1-0.7,1.5c-0.2,0.4-0.5,0.8-0.7,1.2c-0.1,0.1-0.2,0.3-0.3,0.4     l-0.9-0.6c-0.5-0.4-1.2-0.2-1.5,0.3c-0.3,0.5-0.2,1.2,0.3,1.5l0.9,0.6c-0.1,0.1-0.1,0.2-0.2,0.3c-0.3,0.4-0.6,0.9-1,1.3     c-0.3,0.4-0.6,0.7-1,1c-0.2,0.3-0.5,0.5-0.8,0.8C5.4,47.6,2.2,39.9,2.2,32S5.4,16.4,11,10.9z M32,61.8c-7.1,0-13.9-2.5-19.3-7.1     c0.3-0.3,0.5-0.6,0.7-0.8c0.3-0.4,0.7-0.7,1-1.1c0.4-0.4,0.7-0.9,1.1-1.4c0.1-0.1,0.2-0.2,0.2-0.3l1,0.7c0.2,0.1,0.4,0.2,0.6,0.2     c0.4,0,0.7-0.2,0.9-0.5c0.3-0.5,0.2-1.2-0.3-1.5l-1-0.7c0.1-0.2,0.2-0.4,0.3-0.6c0.3-0.4,0.5-0.8,0.7-1.2     c0.3-0.5,0.5-1.1,0.8-1.6c0-0.1,0.1-0.2,0.1-0.3l1.1,0.5c0.1,0.1,0.3,0.1,0.4,0.1c0.4,0,0.8-0.3,1-0.7c0.2-0.6,0-1.2-0.6-1.4     l-1.1-0.5c0.1-0.2,0.2-0.5,0.2-0.7c0.2-0.4,0.3-0.8,0.5-1.3c0.2-0.6,0.3-1.2,0.5-1.9c0-0.1,0-0.1,0.1-0.2l1.1,0.2     c0.1,0,0.1,0,0.2,0c0.5,0,1-0.4,1.1-0.9c0.1-0.6-0.3-1.2-0.9-1.3l-1.1-0.2c0.1-0.3,0.1-0.7,0.2-1c0-0.4,0.1-0.7,0.2-1.1     c0.1-0.7,0.1-1.4,0.1-2.1h1.2c0.6,0,1.1-0.5,1.1-1.1s-0.5-1.1-1.1-1.1H22c0-0.7,0-1.4-0.1-2.1c0-0.4-0.1-0.7-0.2-1.1     c0-0.3-0.1-0.7-0.2-1l1.1-0.2c0.6-0.1,1-0.7,0.9-1.3s-0.7-1-1.3-0.9l-1.1,0.2c0-0.1,0-0.1-0.1-0.2c-0.2-0.6-0.3-1.3-0.5-1.9     c-0.1-0.4-0.3-0.9-0.5-1.3c-0.1-0.2-0.2-0.5-0.2-0.7L21,20c0.6-0.2,0.8-0.9,0.6-1.4c-0.2-0.6-0.9-0.8-1.4-0.6L19,18.5     c0-0.1-0.1-0.2-0.1-0.3c-0.3-0.5-0.5-1.1-0.8-1.6c-0.2-0.4-0.5-0.8-0.7-1.2c-0.1-0.2-0.2-0.4-0.3-0.6l1-0.7     c0.5-0.3,0.6-1,0.3-1.5c-0.3-0.5-1-0.6-1.5-0.3l-1,0.7c-0.1-0.1-0.2-0.2-0.2-0.3c-0.4-0.5-0.7-0.9-1.1-1.4     c-0.3-0.4-0.7-0.7-1-1.1c-0.3-0.3-0.5-0.6-0.7-0.8C18.1,4.7,24.9,2.2,32,2.2s13.9,2.5,19.3,7.1c-0.3,0.3-0.5,0.6-0.7,0.8     c-0.3,0.4-0.7,0.7-1,1.1c-0.4,0.4-0.7,0.9-1.1,1.4c-0.1,0.1-0.2,0.2-0.2,0.3l-1-0.7c-0.5-0.4-1.2-0.2-1.5,0.3     c-0.3,0.5-0.2,1.2,0.3,1.5l1,0.7c-0.1,0.2-0.2,0.4-0.3,0.6c-0.3,0.4-0.5,0.8-0.7,1.2c-0.3,0.5-0.5,1.1-0.8,1.6     c0,0.1-0.1,0.2-0.1,0.3L43.9,18c-0.6-0.2-1.2,0-1.4,0.6c-0.2,0.6,0,1.2,0.6,1.4l1.1,0.5c-0.1,0.2-0.2,0.5-0.2,0.7     c-0.2,0.4-0.3,0.8-0.5,1.3c-0.2,0.6-0.3,1.2-0.5,1.9c0,0.1,0,0.1-0.1,0.2l-1.1-0.2c-0.6-0.1-1.2,0.3-1.3,0.9     c-0.1,0.6,0.3,1.2,0.9,1.3l1.1,0.2c-0.1,0.3-0.1,0.7-0.2,1c0,0.4-0.1,0.7-0.2,1.1C42,29.5,42,30.2,42,30.9h-1.2     c-0.6,0-1.1,0.5-1.1,1.1s0.5,1.1,1.1,1.1H42c0,0.7,0,1.4,0.1,2.1c0,0.4,0.1,0.7,0.2,1.1c0,0.3,0.1,0.7,0.2,1l-1.1,0.2     c-0.6,0.1-1,0.7-0.9,1.3c0.1,0.5,0.6,0.9,1.1,0.9c0.1,0,0.1,0,0.2,0l1.1-0.2c0,0.1,0,0.1,0.1,0.2c0.2,0.6,0.3,1.3,0.5,1.9     c0.1,0.4,0.3,0.9,0.5,1.3c0.1,0.2,0.2,0.5,0.2,0.7L43,44c-0.6,0.2-0.8,0.9-0.6,1.4c0.2,0.4,0.6,0.7,1,0.7c0.1,0,0.3,0,0.4-0.1     l1.1-0.5c0,0.1,0.1,0.2,0.1,0.3c0.3,0.5,0.5,1.1,0.8,1.6c0.2,0.4,0.5,0.8,0.7,1.2c0.1,0.2,0.2,0.4,0.3,0.6l-1,0.7     c-0.5,0.3-0.6,1-0.3,1.5c0.2,0.3,0.6,0.5,0.9,0.5c0.2,0,0.4-0.1,0.6-0.2l1-0.7c0.1,0.1,0.2,0.2,0.2,0.3c0.4,0.5,0.7,0.9,1.1,1.4     c0.3,0.4,0.7,0.7,1,1.1c0.3,0.3,0.5,0.6,0.7,0.8C45.9,59.3,39.1,61.8,32,61.8z"/>
</g>
</g>
</g>
<g id="_x33_3-Student"/>
<g id="_x33_2-Highlighter"/>
<g id="_x33_1-Ruler"/>
<g id="_x33_0-Caliper"/>
<g id="_x32_9-Ruler_Elbow"/>
<g id="_x32_8-Abacus"/>
<g id="_x32_7-Id_Card"/>
<g id="_x32_6-Eraser"/>
<g id="_x32_5-Pencil"/>
<g id="_x32_4-Ink"/>
<g id="_x32_3-Graduation_Cap"/>
<g id="_x32_2-_Sling_Bag"/>
<g id="_x32_1-Rugby_Ball"/>
<g id="_x32_0-Clock"/>
<g id="_x31_9-Certificate"/>
<g id="_x31_8-Idea"/>
<g id="_x31_7-Bookshelf"/>
<g id="_x31_6-Formula"/>
<g id="_x31_5-Bell"/>
<g id="_x31_4-Magnifying_Glass"/>
<g id="_x31_3-Calculator"/>
<g id="_x31_2-Eyeglasses"/>
<g id="_x31_1-Bus"/>
<g id="_x31_0-Trophy"/>
<g id="_x39_-Globe"/>
<g id="_x38_-Basket_Ball"/>
<g id="_x37_-Pen"/>
<g id="_x36_-Board"/>
<g id="_x35_-Bag"/>
<g id="_x34_-Exam"/>
<g id="_x33_-Book"/>
<g id="_x32_-Ruler"/>
<g id="_x31_-Building"/>
</svg>