<?xml version="1.0" ?>
<!-- Uploaded to: SVG Repo, www.svgrepo.com, Generator: SVG Repo Mixer Tools -->
<svg width="800px" height="800px" viewBox="0 0 64 64" version="1.1" xml:space="preserve" xmlns="http://www.w3.org/2000/svg" xmlns:xlink="http://www.w3.org/1999/xlink">
<style type="text/css">
	.st0{fill:#FFEEA9;}
	.st1{fill:#D32436;}
	.st2{fill:#8DD1D3;}
	.st3{fill:#330D00;}
	.st4{fill:none;stroke:#330D00;stroke-linecap:round;stroke-linejoin:round;stroke-miterlimit:10;}
</style>
<g id="_x34_0-Id_Card"/>
<g id="_x33_9-Formula"/>
<g id="_x33_8-Elbow"/>
<g id="_x33_7-Diploma"/>
<g id="_x33_6-Laptop"/>
<g id="_x33_5-Brush"/>
<g id="_x33_4-Baseball"/>
<g id="_x33_3-Student"/>
<g id="_x33_2-Highlighter"/>
<g id="_x33_1-Ruler"/>
<g id="_x33_0-Caliper"/>
<g id="_x32_9-Ruler_Elbow"/>
<g id="_x32_8-Abacus"/>
<g id="_x32_7-Id_Card"/>
<g id="_x32_6-Eraser"/>
<g id="_x32_5-Pencil"/>
<g id="_x32_4-Ink"/>
<g id="_x32_3-Graduation_Cap"/>
<g id="_x32_2-_Sling_Bag"/>
<g id="_x32_1-Rugby_Ball"/>
<g id="_x32_0-Clock"/>
<g id="_x31_9-Certificate"/>
<g id="_x31_8-Idea"/>
<g id="_x31_7-Bookshelf"/>
<g id="_x31_6-Formula"/>
<g id="_x31_5-Bell"/>
<g id="_x31_4-Magnifying_Glass"/>
<g id="_x31_3-Calculator">
<g>
<g>
<rect class="st0" height="61.8" width="44.1" x="9.9" y="1.1"/>
</g>
<g>
<rect class="st2" height="11" width="33.1" x="15.4" y="7.7"/>
</g>
<g>
<rect class="st1" height="6.6" width="6.6" x="15.4" y="23.2"/>
</g>
<g>
<rect class="st1" height="6.6" width="6.6" x="28.7" y="23.2"/>
</g>
<g>
<rect class="st1" height="6.6" width="6.6" x="41.9" y="23.2"/>
</g>
<g>
<rect class="st1" height="6.6" width="6.6" x="15.4" y="36.4"/>
</g>
<g>
<rect class="st1" height="6.6" width="6.6" x="28.7" y="36.4"/>
</g>
<g>
<rect class="st1" height="6.6" width="6.6" x="41.9" y="36.4"/>
</g>
<g>
<rect class="st1" height="6.6" width="6.6" x="15.4" y="49.7"/>
</g>
<g>
<rect class="st1" height="6.6" width="6.6" x="28.7" y="49.7"/>
</g>
<g>
<rect class="st1" height="6.6" width="6.6" x="41.9" y="49.7"/>
</g>
<g>
<g>
<path class="st3" d="M54.1,0H9.9C9.3,0,8.8,0.5,8.8,1.1v61.8c0,0.6,0.5,1.1,1.1,1.1h44.1c0.6,0,1.1-0.5,1.1-1.1V1.1      C55.2,0.5,54.7,0,54.1,0z M53,61.8H11V2.2H53V61.8z"/>
</g>
<g>
<path class="st3" d="M15.4,19.9h33.1c0.6,0,1.1-0.5,1.1-1.1v-11c0-0.6-0.5-1.1-1.1-1.1H15.4c-0.6,0-1.1,0.5-1.1,1.1v11      C14.3,19.4,14.8,19.9,15.4,19.9z M16.6,8.8h30.9v8.8H16.6V8.8z"/>
</g>
<g>
<path class="st3" d="M15.4,30.9h6.6c0.6,0,1.1-0.5,1.1-1.1v-6.6c0-0.6-0.5-1.1-1.1-1.1h-6.6c-0.6,0-1.1,0.5-1.1,1.1v6.6      C14.3,30.4,14.8,30.9,15.4,30.9z M16.6,24.3H21v4.4h-4.4V24.3z"/>
</g>
<g>
<path class="st3" d="M35.3,22.1h-6.6c-0.6,0-1.1,0.5-1.1,1.1v6.6c0,0.6,0.5,1.1,1.1,1.1h6.6c0.6,0,1.1-0.5,1.1-1.1v-6.6      C36.4,22.6,35.9,22.1,35.3,22.1z M34.2,28.7h-4.4v-4.4h4.4V28.7z"/>
</g>
<g>
<path class="st3" d="M48.6,22.1h-6.6c-0.6,0-1.1,0.5-1.1,1.1v6.6c0,0.6,0.5,1.1,1.1,1.1h6.6c0.6,0,1.1-0.5,1.1-1.1v-6.6      C49.7,22.6,49.2,22.1,48.6,22.1z M47.4,28.7H43v-4.4h4.4V28.7z"/>
</g>
<g>
<path class="st3" d="M15.4,44.1h6.6c0.6,0,1.1-0.5,1.1-1.1v-6.6c0-0.6-0.5-1.1-1.1-1.1h-6.6c-0.6,0-1.1,0.5-1.1,1.1V43      C14.3,43.6,14.8,44.1,15.4,44.1z M16.6,37.5H21v4.4h-4.4V37.5z"/>
</g>
<g>
<path class="st3" d="M35.3,35.3h-6.6c-0.6,0-1.1,0.5-1.1,1.1V43c0,0.6,0.5,1.1,1.1,1.1h6.6c0.6,0,1.1-0.5,1.1-1.1v-6.6      C36.4,35.8,35.9,35.3,35.3,35.3z M34.2,41.9h-4.4v-4.4h4.4V41.9z"/>
</g>
<g>
<path class="st3" d="M48.6,35.3h-6.6c-0.6,0-1.1,0.5-1.1,1.1V43c0,0.6,0.5,1.1,1.1,1.1h6.6c0.6,0,1.1-0.5,1.1-1.1v-6.6      C49.7,35.8,49.2,35.3,48.6,35.3z M47.4,41.9H43v-4.4h4.4V41.9z"/>
</g>
<g>
<path class="st3" d="M15.4,57.4h6.6c0.6,0,1.1-0.5,1.1-1.1v-6.6c0-0.6-0.5-1.1-1.1-1.1h-6.6c-0.6,0-1.1,0.5-1.1,1.1v6.6      C14.3,56.9,14.8,57.4,15.4,57.4z M16.6,50.8H21v4.4h-4.4V50.8z"/>
</g>
<g>
<path class="st3" d="M35.3,48.6h-6.6c-0.6,0-1.1,0.5-1.1,1.1v6.6c0,0.6,0.5,1.1,1.1,1.1h6.6c0.6,0,1.1-0.5,1.1-1.1v-6.6      C36.4,49,35.9,48.6,35.3,48.6z M34.2,55.2h-4.4v-4.4h4.4V55.2z"/>
</g>
<g>
<path class="st3" d="M48.6,48.6h-6.6c-0.6,0-1.1,0.5-1.1,1.1v6.6c0,0.6,0.5,1.1,1.1,1.1h6.6c0.6,0,1.1-0.5,1.1-1.1v-6.6      C49.7,49,49.2,48.6,48.6,48.6z M47.4,55.2H43v-4.4h4.4V55.2z"/>
</g>
</g>
</g>
</g>
<g id="_x31_2-Eyeglasses"/>
<g id="_x31_1-Bus"/>
<g id="_x31_0-Trophy"/>
<g id="_x39_-Globe"/>
<g id="_x38_-Basket_Ball"/>
<g id="_x37_-Pen"/>
<g id="_x36_-Board"/>
<g id="_x35_-Bag"/>
<g id="_x34_-Exam"/>
<g id="_x33_-Book"/>
<g id="_x32_-Ruler"/>
<g id="_x31_-Building"/>
</svg>