<?xml version="1.0" ?>
<!-- Uploaded to: SVG Repo, www.svgrepo.com, Generator: SVG Repo Mixer Tools -->
<svg width="800px" height="800px" viewBox="0 0 64 64" version="1.1" xml:space="preserve" xmlns="http://www.w3.org/2000/svg" xmlns:xlink="http://www.w3.org/1999/xlink">
<style type="text/css">
	.st0{fill:#FFEEA9;}
	.st1{fill:#D32436;}
	.st2{fill:#8DD1D3;}
	.st3{fill:#330D00;}
	.st4{fill:none;stroke:#330D00;stroke-linecap:round;stroke-linejoin:round;stroke-miterlimit:10;}
</style>
<g id="_x34_0-Id_Card"/>
<g id="_x33_9-Formula"/>
<g id="_x33_8-Elbow"/>
<g id="_x33_7-Diploma"/>
<g id="_x33_6-Laptop"/>
<g id="_x33_5-Brush"/>
<g id="_x33_4-Baseball"/>
<g id="_x33_3-Student"/>
<g id="_x33_2-Highlighter"/>
<g id="_x33_1-Ruler"/>
<g id="_x33_0-Caliper">
<g>
<g>
<polygon class="st1" points="62.9,29.8 62.9,38.6 32,38.6 32,36.4 16.6,36.4 16.6,38.6 1.1,38.6 1.1,29.8 7.5,17 7.5,29.8      16.8,29.8 16.8,32 32,32 32,29.8    "/>
</g>
<g>
<path class="st2" d="M7.7,38.6H3.8v0.2C3.8,42,5.2,45,7.7,47l0,0V38.6z"/>
</g>
<g>
<path class="st0" d="M32,36.4v4.4H20.3c-0.5,2.4-1.8,4.6-3.7,6.2V36.4H32z"/>
</g>
<g>
<polygon class="st0" points="32,27.6 32,32 16.8,32 16.8,17 23.2,27.6 23.2,27.6    "/>
</g>
<g>
<g>
<path class="st3" d="M62.9,28.7H33.1v-1.1c0-0.6-0.5-1.1-1.1-1.1h-8.2l-6.1-10.1c-0.3-0.4-0.8-0.6-1.2-0.5      c-0.5,0.1-0.8,0.6-0.8,1.1v11.7H8.6V17c0-0.5-0.4-1-0.9-1.1c-0.5-0.1-1,0.1-1.2,0.6L0.1,29.3C0,29.5,0,29.6,0,29.8v8.8      c0,0.6,0.5,1.1,1.1,1.1h1.6C3,42.9,4.5,45.9,7,47.9c0.2,0.2,0.4,0.2,0.7,0.2c0.2,0,0.3,0,0.5-0.1c0.4-0.2,0.6-0.6,0.6-1v-7.3      h6.6V47c0,0.4,0.2,0.8,0.6,1c0.2,0.1,0.3,0.1,0.5,0.1c0.2,0,0.5-0.1,0.7-0.2c1.9-1.5,3.3-3.6,3.9-5.9H32c0.6,0,1.1-0.5,1.1-1.1      v-1.1h29.8c0.6,0,1.1-0.5,1.1-1.1v-8.8C64,29.2,63.5,28.7,62.9,28.7z M17.9,21l4.4,7.2c0.2,0.3,0.6,0.5,0.9,0.5h7.7v1.1v1.1h-13      v-1.1V21z M6.6,44.3c-0.9-1.3-1.5-2.8-1.7-4.5h1.7V44.3z M30.9,39.7H20.3c-0.5,0-1,0.4-1.1,0.9c-0.3,1.3-0.8,2.6-1.5,3.6v-5.6      v-1.1h13.2v1.1V39.7z M61.8,37.5H33.1v-1.1c0-0.6-0.5-1.1-1.1-1.1H16.6c-0.6,0-1.1,0.5-1.1,1.1v1.1H7.7H3.8H2.2v-7.5l4.2-8.4      v8.1c0,0.6,0.5,1.1,1.1,1.1h8.2V32c0,0.6,0.5,1.1,1.1,1.1H32c0.6,0,1.1-0.5,1.1-1.1v-1.1h28.7V37.5z"/>
</g>
<g>
<path class="st3" d="M7.7,31.7c-0.6,0-1.1,0.5-1.1,1.1v2.9c0,0.6,0.5,1.1,1.1,1.1s1.1-0.5,1.1-1.1v-2.9      C8.8,32.2,8.3,31.7,7.7,31.7z"/>
</g>
<g>
<path class="st3" d="M12.1,31.7c-0.6,0-1.1,0.5-1.1,1.1v2.9c0,0.6,0.5,1.1,1.1,1.1s1.1-0.5,1.1-1.1v-2.9      C13.2,32.2,12.7,31.7,12.1,31.7z"/>
</g>
<g>
<path class="st3" d="M36.4,36.8c0.6,0,1.1-0.5,1.1-1.1v-2.9c0-0.6-0.5-1.1-1.1-1.1c-0.6,0-1.1,0.5-1.1,1.1v2.9      C35.3,36.3,35.8,36.8,36.4,36.8z"/>
</g>
<g>
<path class="st3" d="M40.8,36.8c0.6,0,1.1-0.5,1.1-1.1v-2.9c0-0.6-0.5-1.1-1.1-1.1s-1.1,0.5-1.1,1.1v2.9      C39.7,36.3,40.2,36.8,40.8,36.8z"/>
</g>
<g>
<path class="st3" d="M45.2,36.8c0.6,0,1.1-0.5,1.1-1.1v-2.9c0-0.6-0.5-1.1-1.1-1.1s-1.1,0.5-1.1,1.1v2.9      C44.1,36.3,44.6,36.8,45.2,36.8z"/>
</g>
<g>
<path class="st3" d="M49.7,36.8c0.6,0,1.1-0.5,1.1-1.1v-2.9c0-0.6-0.5-1.1-1.1-1.1c-0.6,0-1.1,0.5-1.1,1.1v2.9      C48.6,36.3,49,36.8,49.7,36.8z"/>
</g>
<g>
<path class="st3" d="M54.1,36.8c0.6,0,1.1-0.5,1.1-1.1v-2.9c0-0.6-0.5-1.1-1.1-1.1S53,32.2,53,32.8v2.9      C53,36.3,53.5,36.8,54.1,36.8z"/>
</g>
<g>
<path class="st3" d="M58.5,36.8c0.6,0,1.1-0.5,1.1-1.1v-2.9c0-0.6-0.5-1.1-1.1-1.1c-0.6,0-1.1,0.5-1.1,1.1v2.9      C57.4,36.3,57.9,36.8,58.5,36.8z"/>
</g>
</g>
</g>
</g>
<g id="_x32_9-Ruler_Elbow"/>
<g id="_x32_8-Abacus"/>
<g id="_x32_7-Id_Card"/>
<g id="_x32_6-Eraser"/>
<g id="_x32_5-Pencil"/>
<g id="_x32_4-Ink"/>
<g id="_x32_3-Graduation_Cap"/>
<g id="_x32_2-_Sling_Bag"/>
<g id="_x32_1-Rugby_Ball"/>
<g id="_x32_0-Clock"/>
<g id="_x31_9-Certificate"/>
<g id="_x31_8-Idea"/>
<g id="_x31_7-Bookshelf"/>
<g id="_x31_6-Formula"/>
<g id="_x31_5-Bell"/>
<g id="_x31_4-Magnifying_Glass"/>
<g id="_x31_3-Calculator"/>
<g id="_x31_2-Eyeglasses"/>
<g id="_x31_1-Bus"/>
<g id="_x31_0-Trophy"/>
<g id="_x39_-Globe"/>
<g id="_x38_-Basket_Ball"/>
<g id="_x37_-Pen"/>
<g id="_x36_-Board"/>
<g id="_x35_-Bag"/>
<g id="_x34_-Exam"/>
<g id="_x33_-Book"/>
<g id="_x32_-Ruler"/>
<g id="_x31_-Building"/>
</svg>