<?xml version="1.0" ?>
<!-- Uploaded to: SVG Repo, www.svgrepo.com, Generator: SVG Repo Mixer Tools -->
<svg width="800px" height="800px" viewBox="0 0 64 64" version="1.1" xml:space="preserve" xmlns="http://www.w3.org/2000/svg" xmlns:xlink="http://www.w3.org/1999/xlink">
<style type="text/css">
	.st0{fill:#FFEEA9;}
	.st1{fill:#D32436;}
	.st2{fill:#8DD1D3;}
	.st3{fill:#330D00;}
	.st4{fill:none;stroke:#330D00;stroke-linecap:round;stroke-linejoin:round;stroke-miterlimit:10;}
</style>
<g id="_x34_0-Id_Card"/>
<g id="_x33_9-Formula"/>
<g id="_x33_8-Elbow"/>
<g id="_x33_7-Diploma"/>
<g id="_x33_6-Laptop"/>
<g id="_x33_5-Brush"/>
<g id="_x33_4-Baseball"/>
<g id="_x33_3-Student"/>
<g id="_x33_2-Highlighter"/>
<g id="_x33_1-Ruler"/>
<g id="_x33_0-Caliper"/>
<g id="_x32_9-Ruler_Elbow"/>
<g id="_x32_8-Abacus"/>
<g id="_x32_7-Id_Card"/>
<g id="_x32_6-Eraser"/>
<g id="_x32_5-Pencil"/>
<g id="_x32_4-Ink"/>
<g id="_x32_3-Graduation_Cap"/>
<g id="_x32_2-_Sling_Bag"/>
<g id="_x32_1-Rugby_Ball">
<g>
<g>
<path class="st1" d="M53.6,13.8c-0.4,7.1-3.4,16.4-8.8,25.6c-5.3,9.2-11.9,16.4-17.9,20.3c-1.5-2.2-4.1-4.5-7.4-6.3     c-3.2-1.9-6.5-3-9.2-3.3c0.4-7.1,3.4-16.4,8.8-25.6c5.3-9.2,11.9-16.4,17.9-20.3c1.5,2.2,4.1,4.5,7.4,6.3     C47.7,12.5,50.9,13.6,53.6,13.8z"/>
</g>
<g>
<path class="st0" d="M26.9,59.8c-4.8,3.1-9.2,4-12.3,2.2c-3.2-1.8-4.5-6.1-4.2-11.8c2.7,0.3,5.9,1.4,9.2,3.3     C22.8,55.3,25.4,57.6,26.9,59.8z"/>
</g>
<g>
<path class="st0" d="M53.6,13.8c-2.7-0.3-5.9-1.4-9.2-3.3c-3.2-1.9-5.8-4.1-7.4-6.3c4.8-3.1,9.2-4,12.3-2.2     C52.6,3.9,53.9,8.2,53.6,13.8z"/>
</g>
<g>
<g>
<path class="st3" d="M54.8,12.8L54.8,12.8c0.1-5.7-1.6-9.9-4.8-11.8c-3.2-1.9-7.6-1.2-12.6,1.7l0,0l-0.9,0.6c0,0,0,0,0,0      l-0.9,0.6l0,0c-6.1,4.2-12.4,11.4-17.3,20c-5,8.6-8.1,17.6-8.8,25l0,0l-0.1,1.1c0,0,0,0,0,0l-0.1,1.1l0,0      c-0.1,5.7,1.5,9.9,4.7,11.8c1.2,0.7,2.6,1.1,4.2,1.1c2.5,0,5.3-1,8.4-2.8l0,0l0.9-0.6c0,0,0,0,0,0l1-0.6l0,0      c6.1-4.2,12.4-11.4,17.3-20c5-8.6,8.1-17.6,8.8-25l0,0l0.1-1.1c0,0,0,0,0,0L54.8,12.8z M48.9,3c2.5,1.4,3.7,4.8,3.7,9.6      c-0.2,0-0.3,0-0.5-0.1c-0.3-0.1-0.5-0.1-0.8-0.2c-0.4-0.1-0.8-0.2-1.3-0.4c-0.3-0.1-0.5-0.2-0.8-0.3c-0.5-0.2-0.9-0.4-1.4-0.6      c-0.2-0.1-0.5-0.2-0.7-0.3c-0.7-0.3-1.4-0.7-2.1-1.1c-0.7-0.4-1.4-0.9-2-1.3c-0.2-0.1-0.4-0.3-0.6-0.4c-0.4-0.3-0.8-0.6-1.2-0.9      c-0.2-0.2-0.4-0.4-0.6-0.6c-0.3-0.3-0.6-0.6-0.9-0.9c-0.2-0.2-0.4-0.4-0.5-0.6c-0.1-0.1-0.2-0.3-0.3-0.4      C42.9,2.1,46.4,1.5,48.9,3z M15.1,61c-2.5-1.4-3.7-4.8-3.7-9.6c0.2,0,0.3,0,0.5,0.1c0.2,0.1,0.5,0.1,0.8,0.2      c0.4,0.1,0.8,0.2,1.3,0.4c0.3,0.1,0.5,0.2,0.8,0.3c0.5,0.2,0.9,0.4,1.4,0.6c0.2,0.1,0.5,0.2,0.7,0.3c0.7,0.3,1.4,0.7,2.1,1.1      c0.7,0.4,1.4,0.9,2,1.3c0.2,0.1,0.4,0.3,0.6,0.4c0.4,0.3,0.8,0.6,1.2,1c0.2,0.2,0.4,0.4,0.6,0.5c0.3,0.3,0.7,0.6,1,0.9      c0.2,0.2,0.4,0.4,0.5,0.6c0.1,0.1,0.2,0.3,0.3,0.4C21.1,61.9,17.6,62.4,15.1,61z M43.9,38.9C39,47.2,33,54.2,27.2,58.3      c-0.1-0.2-0.3-0.3-0.5-0.5c-0.2-0.2-0.4-0.4-0.6-0.7c-0.3-0.3-0.7-0.7-1-1c-0.2-0.2-0.4-0.4-0.7-0.6c-0.4-0.4-0.9-0.7-1.3-1      c-0.2-0.2-0.4-0.3-0.7-0.5c-0.7-0.5-1.5-1-2.2-1.4c-0.8-0.5-1.6-0.9-2.3-1.2c-0.3-0.1-0.5-0.2-0.8-0.3c-0.5-0.2-1-0.4-1.5-0.6      c-0.3-0.1-0.6-0.2-0.9-0.3c-0.5-0.2-0.9-0.3-1.4-0.4c-0.3-0.1-0.6-0.1-0.9-0.2c-0.2,0-0.5-0.1-0.7-0.2c0.6-7,3.7-15.8,8.5-24.1      C25,16.8,31,9.8,36.8,5.7c0.1,0.2,0.3,0.4,0.5,0.5c0.2,0.2,0.4,0.4,0.6,0.6c0.3,0.3,0.7,0.7,1.1,1c0.2,0.2,0.4,0.4,0.7,0.6      c0.4,0.4,0.9,0.7,1.4,1.1c0.2,0.2,0.4,0.3,0.6,0.5c0.7,0.5,1.5,1,2.2,1.4c0.8,0.5,1.6,0.9,2.3,1.2c0.3,0.1,0.5,0.2,0.8,0.3      c0.5,0.2,1,0.5,1.6,0.6c0.3,0.1,0.6,0.2,0.9,0.3c0.5,0.2,0.9,0.3,1.4,0.4c0.3,0.1,0.6,0.1,0.9,0.2c0.2,0,0.5,0.1,0.7,0.2      C51.8,21.8,48.7,30.6,43.9,38.9z"/>
</g>
<g>
<path class="st3" d="M42,22.2l-2.3-1.3l1.3-2.3c0.3-0.5,0.1-1.2-0.4-1.5c-0.5-0.3-1.2-0.1-1.5,0.4l-1.3,2.3l-2.3-1.3      c-0.5-0.3-1.2-0.1-1.5,0.4c-0.3,0.5-0.1,1.2,0.4,1.5l2.3,1.3l-1.4,2.4l-2.3-1.3c-0.5-0.3-1.2-0.1-1.5,0.4      c-0.3,0.5-0.1,1.2,0.4,1.5l2.3,1.3l-1.4,2.4L30.6,27c-0.5-0.3-1.2-0.1-1.5,0.4c-0.3,0.5-0.1,1.2,0.4,1.5l2.3,1.3l-1.4,2.4      l-2.3-1.3c-0.5-0.3-1.2-0.1-1.5,0.4c-0.3,0.5-0.1,1.2,0.4,1.5l2.3,1.3l-1.4,2.4l-2.3-1.3c-0.5-0.3-1.2-0.1-1.5,0.4      c-0.3,0.5-0.1,1.2,0.4,1.5l2.3,1.3l-1.4,2.4l-2.3-1.3c-0.5-0.3-1.2-0.1-1.5,0.4c-0.3,0.5-0.1,1.2,0.4,1.5l2.3,1.3L23,45.4      c-0.3,0.5-0.1,1.2,0.4,1.5c0.2,0.1,0.4,0.1,0.6,0.1c0.4,0,0.8-0.2,1-0.6l1.3-2.3l2.3,1.3c0.2,0.1,0.4,0.1,0.6,0.1      c0.4,0,0.8-0.2,1-0.6c0.3-0.5,0.1-1.2-0.4-1.5l-2.3-1.3l1.4-2.4l2.3,1.3c0.2,0.1,0.4,0.1,0.6,0.1c0.4,0,0.8-0.2,1-0.6      c0.3-0.5,0.1-1.2-0.4-1.5L29.8,38l1.4-2.4l2.3,1.3c0.2,0.1,0.4,0.1,0.6,0.1c0.4,0,0.8-0.2,1-0.6c0.3-0.5,0.1-1.2-0.4-1.5      l-2.3-1.3l1.4-2.4l2.3,1.3c0.2,0.1,0.4,0.2,0.6,0.2c0.4,0,0.8-0.2,1-0.5c0.3-0.5,0.1-1.2-0.4-1.5l-2.3-1.3l1.4-2.4l2.3,1.3      c0.2,0.1,0.4,0.2,0.6,0.2c0.4,0,0.8-0.2,1-0.5c0.3-0.5,0.1-1.2-0.4-1.5l-2.3-1.3l1.4-2.4l2.3,1.3c0.2,0.1,0.4,0.2,0.6,0.2      c0.4,0,0.8-0.2,1-0.5C42.7,23.2,42.5,22.5,42,22.2z"/>
</g>
</g>
</g>
</g>
<g id="_x32_0-Clock"/>
<g id="_x31_9-Certificate"/>
<g id="_x31_8-Idea"/>
<g id="_x31_7-Bookshelf"/>
<g id="_x31_6-Formula"/>
<g id="_x31_5-Bell"/>
<g id="_x31_4-Magnifying_Glass"/>
<g id="_x31_3-Calculator"/>
<g id="_x31_2-Eyeglasses"/>
<g id="_x31_1-Bus"/>
<g id="_x31_0-Trophy"/>
<g id="_x39_-Globe"/>
<g id="_x38_-Basket_Ball"/>
<g id="_x37_-Pen"/>
<g id="_x36_-Board"/>
<g id="_x35_-Bag"/>
<g id="_x34_-Exam"/>
<g id="_x33_-Book"/>
<g id="_x32_-Ruler"/>
<g id="_x31_-Building"/>
</svg>