<?xml version="1.0" ?>
<!-- Uploaded to: SVG Repo, www.svgrepo.com, Generator: SVG Repo Mixer Tools -->
<svg width="800px" height="800px" viewBox="0 0 64 64" version="1.1" xml:space="preserve" xmlns="http://www.w3.org/2000/svg" xmlns:xlink="http://www.w3.org/1999/xlink">
<style type="text/css">
	.st0{fill:#FFEEA9;}
	.st1{fill:#D32436;}
	.st2{fill:#8DD1D3;}
	.st3{fill:#330D00;}
	.st4{fill:none;stroke:#330D00;stroke-linecap:round;stroke-linejoin:round;stroke-miterlimit:10;}
</style>
<g id="_x34_0-Id_Card"/>
<g id="_x33_9-Formula"/>
<g id="_x33_8-Elbow"/>
<g id="_x33_7-Diploma"/>
<g id="_x33_6-Laptop"/>
<g id="_x33_5-Brush"/>
<g id="_x33_4-Baseball"/>
<g id="_x33_3-Student"/>
<g id="_x33_2-Highlighter"/>
<g id="_x33_1-Ruler">
<g>
<g>
<rect class="st0" height="11" width="61.8" x="1.1" y="35.3"/>
</g>
<g>
<path class="st1" d="M53.6,35.3H42.1c-1.7-3.9-5.6-6.6-10.1-6.6s-8.4,2.7-10.1,6.6H10.4c2.1-10.1,11-17.7,21.6-17.7     S51.6,25.2,53.6,35.3z"/>
</g>
<g>
<path class="st3" d="M62.9,34.2h-8.4C52,23.9,42.7,16.6,32,16.6S12,23.9,9.5,34.2H1.1c-0.6,0-1.1,0.5-1.1,1.1v11     c0,0.6,0.5,1.1,1.1,1.1h61.8c0.6,0,1.1-0.5,1.1-1.1v-11C64,34.7,63.5,34.2,62.9,34.2z M32,18.8c9.5,0,17.8,6.4,20.2,15.4h-9.4     c-2.1-4-6.3-6.6-10.8-6.6s-8.7,2.6-10.8,6.6h-9.4C14.2,25.2,22.5,18.8,32,18.8z M40.2,34.2H23.8c1.8-2.7,4.9-4.4,8.2-4.4     S38.4,31.5,40.2,34.2z M61.8,45.2h-5.5v-3.3c0-0.6-0.5-1.1-1.1-1.1s-1.1,0.5-1.1,1.1v3.3h-4.4v-3.3c0-0.6-0.5-1.1-1.1-1.1     s-1.1,0.5-1.1,1.1v3.3H43v-3.3c0-0.6-0.5-1.1-1.1-1.1s-1.1,0.5-1.1,1.1v3.3h-4.4v-3.3c0-0.6-0.5-1.1-1.1-1.1s-1.1,0.5-1.1,1.1     v3.3h-4.4v-3.3c0-0.6-0.5-1.1-1.1-1.1c-0.6,0-1.1,0.5-1.1,1.1v3.3h-4.4v-3.3c0-0.6-0.5-1.1-1.1-1.1c-0.6,0-1.1,0.5-1.1,1.1v3.3     h-4.4v-3.3c0-0.6-0.5-1.1-1.1-1.1s-1.1,0.5-1.1,1.1v3.3H9.9v-3.3c0-0.6-0.5-1.1-1.1-1.1s-1.1,0.5-1.1,1.1v3.3H2.2v-8.8h8.2h11.5     h20.3h11.5h8.2V45.2z"/>
</g>
</g>
</g>
<g id="_x33_0-Caliper"/>
<g id="_x32_9-Ruler_Elbow"/>
<g id="_x32_8-Abacus"/>
<g id="_x32_7-Id_Card"/>
<g id="_x32_6-Eraser"/>
<g id="_x32_5-Pencil"/>
<g id="_x32_4-Ink"/>
<g id="_x32_3-Graduation_Cap"/>
<g id="_x32_2-_Sling_Bag"/>
<g id="_x32_1-Rugby_Ball"/>
<g id="_x32_0-Clock"/>
<g id="_x31_9-Certificate"/>
<g id="_x31_8-Idea"/>
<g id="_x31_7-Bookshelf"/>
<g id="_x31_6-Formula"/>
<g id="_x31_5-Bell"/>
<g id="_x31_4-Magnifying_Glass"/>
<g id="_x31_3-Calculator"/>
<g id="_x31_2-Eyeglasses"/>
<g id="_x31_1-Bus"/>
<g id="_x31_0-Trophy"/>
<g id="_x39_-Globe"/>
<g id="_x38_-Basket_Ball"/>
<g id="_x37_-Pen"/>
<g id="_x36_-Board"/>
<g id="_x35_-Bag"/>
<g id="_x34_-Exam"/>
<g id="_x33_-Book"/>
<g id="_x32_-Ruler"/>
<g id="_x31_-Building"/>
</svg>