<?xml version="1.0" ?>
<!-- Uploaded to: SVG Repo, www.svgrepo.com, Generator: SVG Repo Mixer Tools -->
<svg width="800px" height="800px" viewBox="0 0 64 64" xmlns="http://www.w3.org/2000/svg">
<g id="flat">
<rect height="14" rx="2" ry="2" style="fill:#e3e3e1" width="48" x="8" y="47"/>
<path d="M54,47H51v5a2.5,2.5,0,0,1-2.5,2.5H8V59a2,2,0,0,0,2,2H54a2,2,0,0,0,2-2V49A2,2,0,0,0,54,47Z" style="fill:#dbdbd9"/>
<path d="M32,17h0A21,21,0,0,1,53,38v9a0,0,0,0,1,0,0H11a0,0,0,0,1,0,0V38A21,21,0,0,1,32,17Z" style="fill:#dd4a43"/>
<path d="M32,17a21.15,21.15,0,0,0-4.054.4A23,23,0,0,1,41,38.143V47H53V38A21,21,0,0,0,32,17Z" style="fill:#d13e37"/>
<path d="M34.244,4.583h0a2.381,2.381,0,0,1,3.173,3.173h0a2.382,2.382,0,0,1,0,4.488h0a2.381,2.381,0,0,1-3.173,3.173h0a2.382,2.382,0,0,1-4.488,0h0a2.381,2.381,0,0,1-3.173-3.173h0a2.382,2.382,0,0,1,0-4.488h0a2.381,2.381,0,0,1,3.173-3.173h0A2.382,2.382,0,0,1,34.244,4.583Z" style="fill:#e3e3e1"/>
<rect height="11" style="fill:#c9c9c8" width="2" x="31" y="50"/>
<rect height="11" style="fill:#c9c9c8" width="2" x="25" y="50"/>
<rect height="11" style="fill:#c9c9c8" width="2" x="19" y="50"/>
<rect height="7" style="fill:#c9c9c8" width="2" x="13" y="54"/>
<rect height="11" style="fill:#c9c9c8" width="2" x="49" y="50"/>
<rect height="11" style="fill:#c9c9c8" width="2" x="43" y="50"/>
<rect height="11" style="fill:#c9c9c8" width="2" x="37" y="50"/>
<rect height="2" style="fill:#c9c9c8" width="2" x="13" y="50"/>
<path d="M14.707,34.707,20,29.414l5.293,5.293a1,1,0,0,0,1.414,0L32,29.414l5.293,5.293a1,1,0,0,0,1.414,0L44,29.414l5.293,5.293a1,1,0,0,0,1.414,0l1.677-1.677a20.867,20.867,0,0,0-.656-2.172L50,32.586l-5.293-5.293a1,1,0,0,0-1.414,0L38,32.586l-5.293-5.293a1,1,0,0,0-1.414,0L26,32.586l-5.293-5.293a1,1,0,0,0-1.414,0L14,32.586l-1.728-1.728a20.867,20.867,0,0,0-.656,2.172l1.677,1.677A1,1,0,0,0,14.707,34.707Z" style="fill:#7ea82d"/>
<path d="M14.707,42.707,20,37.414l5.293,5.293a1,1,0,0,0,1.414,0L32,37.414l5.293,5.293a1,1,0,0,0,1.414,0L44,37.414l5.293,5.293a1,1,0,0,0,1.414,0L53,40.414V38c0-.133-.017-.262-.02-.394L50,40.586l-5.293-5.293a1,1,0,0,0-1.414,0L38,40.586l-5.293-5.293a1,1,0,0,0-1.414,0L26,40.586l-5.293-5.293a1,1,0,0,0-1.414,0L14,40.586l-2.98-2.98c0,.132-.02.261-.02.394v2.414l2.293,2.293A1,1,0,0,0,14.707,42.707Z" style="fill:#7ea82d"/>
<path d="M37.417,7.756h0a2.353,2.353,0,0,0-.706-2.913c-1.856,5.2-6.023,8.22-9.8,9.95a2.343,2.343,0,0,0,2.841.624,2.382,2.382,0,0,0,4.488,0,2.381,2.381,0,0,0,3.173-3.173h0A2.382,2.382,0,0,0,37.417,7.756Z" style="fill:#dbdbd9"/>
</g>
</svg>