<?xml version="1.0" ?>
<!-- Uploaded to: SVG Repo, www.svgrepo.com, Generator: SVG Repo Mixer Tools -->
<svg width="800px" height="800px" viewBox="0 0 64 64" xmlns="http://www.w3.org/2000/svg">
<g id="flat">
<circle cx="57" cy="17" r="4" style="fill:#e3e3e1"/>
<path d="M14,32h1a0,0,0,0,1,0,0V42a0,0,0,0,1,0,0H14a5,5,0,0,1-5-5v0A5,5,0,0,1,14,32Z" style="fill:#feb784"/>
<path d="M32,61h0A17,17,0,0,1,15,44V28H49V44A17,17,0,0,1,32,61Z" style="fill:#fec9a3"/>
<path d="M15,28v8.431c3.838-.813,10.573-2.54,15.454-5.431H41V44A16.991,16.991,0,0,1,28,60.506c.37.09.747.166,1.126.233.3.05.593.1.894.136.181.022.365.036.548.053.474.039.95.072,1.434.072A17,17,0,0,0,49,44V28Z" style="fill:#fec093"/>
<circle cx="22.5" cy="38.5" r="2.5" style="fill:#7a4321"/>
<circle cx="41.5" cy="38.5" r="2.5" style="fill:#7a4321"/>
<circle cx="22" cy="47" r="3" style="fill:#dd4a43"/>
<circle cx="42" cy="47" r="3" style="fill:#dd4a43"/>
<path d="M14,28h0a6.826,6.826,0,0,0-2,4.828V35s13-2,20-7Z" style="fill:#fd9a30"/>
<path d="M44,28l5,4V42l.243-.566A34.107,34.107,0,0,0,52,28H44Z" style="fill:#fd9a30"/>
<path d="M54,32h1a0,0,0,0,1,0,0V42a0,0,0,0,1,0,0H54a5,5,0,0,1-5-5v0a5,5,0,0,1,5-5Z" style="fill:#feb784" transform="translate(104 74) rotate(-180)"/>
<path d="M13,21h0A18,18,0,0,1,31,3h7.44A19.3,19.3,0,0,1,57,17h0l-6-2v6Z" style="fill:#dd4a43"/>
<rect height="8" rx="2" ry="2" style="fill:#ebebe8" width="42" x="11" y="21"/>
<path d="M32,51h0a4,4,0,0,1-4-4V46h8v1A4,4,0,0,1,32,51Z" style="fill:#ebebe8"/>
<path d="M25.43,9.255,24.57,7.45a14.931,14.931,0,0,1,2.144-.826l.572,1.916A13.036,13.036,0,0,0,25.43,9.255Z" style="fill:#e66b65"/>
<path d="M18.54,17.286l-1.916-.572a15.1,15.1,0,0,1,5.8-8.017l1.146,1.639A13.093,13.093,0,0,0,18.54,17.286Z" style="fill:#e66b65"/>
<path d="M57,17A19.279,19.279,0,0,0,48.408,5.787,17.972,17.972,0,0,0,40,21H51V15Z" style="fill:#d13e37"/>
</g>
</svg>