<?xml version="1.0" ?>
<!-- Uploaded to: SVG Repo, www.svgrepo.com, Generator: SVG Repo Mixer Tools -->
<svg width="800px" height="800px" viewBox="0 0 64 64" xmlns="http://www.w3.org/2000/svg">
<g id="flat">
<rect height="5" style="fill:#e3e3e1" width="2" x="31" y="16"/>
<path d="M36.958,49.686l.707,9.193,9.193.707h0A7.467,7.467,0,0,1,54.1,53.929h1.24v-1.24A7.467,7.467,0,0,1,61,45.444h0l-.707-9.193L51.1,35.544h0A7.469,7.469,0,0,1,43.855,41.2h-1.24v1.24a7.467,7.467,0,0,1-5.657,7.245Z" style="fill:#7ea82d"/>
<path d="M27.042,49.686l-.707,9.193-9.193.707h0A7.467,7.467,0,0,0,9.9,53.929H8.657v-1.24A7.467,7.467,0,0,0,3,45.444H3l.707-9.193,9.192-.707h0A7.469,7.469,0,0,0,20.145,41.2h1.24v1.24a7.467,7.467,0,0,0,5.657,7.245Z" style="fill:#7ea82d"/>
<rect height="17.598" style="fill:#729c22" transform="translate(-28.563 22.926) rotate(-44.91)" width="2" x="12.455" y="37.22"/>
<rect height="2.001" style="fill:#729c22" transform="translate(-17.734 48.825) rotate(-44.703)" width="17.598" x="41.705" y="44.977"/>
<path d="M41,61H23V23a2,2,0,0,1,2-2H39a2,2,0,0,1,2,2Z" style="fill:#fdab26"/>
<circle cx="22" cy="58" r="3" style="fill:#dd4a43"/>
<circle cx="20" cy="52" r="3" style="fill:#dd4a43"/>
<path d="M32,3h0a7.95,7.95,0,0,0,0,14h0A7.95,7.95,0,0,0,32,3Z" style="fill:#fdb62f"/>
<path d="M23,23v7a3,3,0,0,0,3,3h0a3,3,0,0,0,3-3V29a3,3,0,0,1,3-3h0a3,3,0,0,1,3,3v5a3,3,0,0,0,3,3h0a3,3,0,0,0,3-3V23a2,2,0,0,0-2-2H25A2,2,0,0,0,23,23Z" style="fill:#ffce80"/>
<rect height="2" style="fill:#ffce80" width="2" x="26" y="39"/>
<rect height="10" style="fill:#ffce80" width="2" x="26" y="43"/>
<circle cx="42" cy="58" r="3" style="fill:#dd4a43"/>
<circle cx="44" cy="52" r="3" style="fill:#dd4a43"/>
</g>
</svg>