<?xml version="1.0" ?>
<!-- Uploaded to: SVG Repo, www.svgrepo.com, Generator: SVG Repo Mixer Tools -->
<svg width="800px" height="800px" viewBox="0 0 64 64" xmlns="http://www.w3.org/2000/svg">
<g id="flat">
<path d="M25.443,35.557,3,58l3,3L28.443,38.557A20.163,20.163,0,0,1,25.443,35.557Z" style="fill:#e3e3e1"/>
<path d="M26.677,23.146c.106-.092.22-.17.329-.256a13.98,13.98,0,0,1,7.1-12.063c-.131-.052-.256-.112-.39-.158a24.689,24.689,0,0,0-7.448-1.158,19.944,19.944,0,0,0-4.33,19.532A24.71,24.71,0,0,1,26.677,23.146Z" style="fill:#7ea82d"/>
<path d="M48.094,10.945A13.982,13.982,0,0,1,55,23c0,.037-.005.073-.006.11.109-.086.223-.164.329-.256a24.71,24.71,0,0,0,4.743-5.9A20.024,20.024,0,0,0,45.3,3.477a24.65,24.65,0,0,1,2.731,7.046C48.063,10.664,48.073,10.8,48.094,10.945Z" style="fill:#7ea82d"/>
<path d="M60.066,16.957a24.71,24.71,0,0,1-4.743,5.9c-.106.092-.22.17-.329.256a13.98,13.98,0,0,1-7.1,12.063c.131.052.256.112.39.158a24.689,24.689,0,0,0,7.448,1.158,19.944,19.944,0,0,0,4.33-19.532Z" style="fill:#dd4a43"/>
<path d="M33.906,35.055A13.982,13.982,0,0,1,27,23c0-.037,0-.073.006-.11-.109.086-.223.164-.329.256a24.71,24.71,0,0,0-4.743,5.9A20.024,20.024,0,0,0,36.7,42.523a24.679,24.679,0,0,1-2.731-7.046C33.937,35.336,33.927,35.2,33.906,35.055Z" style="fill:#dd4a43"/>
<path d="M47.9,35.173a13.922,13.922,0,0,1-13.992-.118c.021.141.031.281.059.422A24.679,24.679,0,0,0,36.7,42.523a19.876,19.876,0,0,0,19.04-6.034,24.689,24.689,0,0,1-7.448-1.158C48.154,35.285,48.029,35.225,47.9,35.173Z" style="fill:#7ea82d"/>
<path d="M35.227,28.529a7.957,7.957,0,0,1-1.9-7.765,10.24,10.24,0,0,0-6.317,2.126c0,.037-.006.073-.006.11a13.982,13.982,0,0,0,6.906,12.055A10.241,10.241,0,0,1,35.227,28.529Z" style="fill:#7ea82d"/>
<path d="M33.323,20.764A8,8,0,0,1,39.1,15.237a10.236,10.236,0,0,0-5-4.41,13.98,13.98,0,0,0-7.1,12.063A10.24,10.24,0,0,1,33.323,20.764Z" style="fill:#dd4a43"/>
<path d="M39.1,15.237a7.926,7.926,0,0,1,7.674,2.234,10.243,10.243,0,0,0,1.321-6.526A13.922,13.922,0,0,0,34.1,10.827,10.236,10.236,0,0,1,39.1,15.237Z" style="fill:#7ea82d"/>
<path d="M48.677,25.236A8,8,0,0,1,42.9,30.763a10.236,10.236,0,0,0,5,4.41,13.98,13.98,0,0,0,7.1-12.063A10.24,10.24,0,0,1,48.677,25.236Z" style="fill:#7ea82d"/>
<path d="M42.9,30.763a7.926,7.926,0,0,1-7.674-2.234,10.241,10.241,0,0,0-1.321,6.526,13.922,13.922,0,0,0,13.992.118A10.236,10.236,0,0,1,42.9,30.763Z" style="fill:#dd4a43"/>
<path d="M48.094,10.945a10.243,10.243,0,0,1-1.321,6.526,7.957,7.957,0,0,1,1.9,7.765,10.24,10.24,0,0,0,6.317-2.126c0-.037.006-.073.006-.11A13.982,13.982,0,0,0,48.094,10.945Z" style="fill:#dd4a43"/>
<path d="M40.58,22.727l.026.017c.135.081.263.171.394.256.008-.157.011-.314.025-.469A14.087,14.087,0,0,0,39.1,15.237a8,8,0,0,0-5.776,5.527,14.084,14.084,0,0,1,7.283,1.98Z" style="fill:#7ea82d"/>
<path d="M40.582,23.213l-.028.014.028-.014c.137-.077.279-.142.418-.213h0c-.131-.085-.266-.167-.394-.256a14.084,14.084,0,0,0-7.283-1.98,7.957,7.957,0,0,0,1.9,7.765A14.084,14.084,0,0,1,40.582,23.213Z" style="fill:#dd4a43"/>
<path d="M41.42,23.273l-.026-.017c-.135-.081-.263-.171-.394-.256-.008.157-.011.314-.025.469A14.087,14.087,0,0,0,42.9,30.763a8,8,0,0,0,5.776-5.527,14.084,14.084,0,0,1-7.283-1.98Z" style="fill:#dd4a43"/>
<path d="M34.1,10.827a13.922,13.922,0,0,1,13.992.118c-.021-.141-.031-.281-.059-.422A24.65,24.65,0,0,0,45.3,3.477a19.876,19.876,0,0,0-19.04,6.034,24.689,24.689,0,0,1,7.448,1.158C33.846,10.715,33.971,10.775,34.1,10.827Z" style="fill:#dd4a43"/>
<path d="M41,15a8,8,0,0,0-1.9.237,14.087,14.087,0,0,1,1.926,7.294v0c0,.157-.017.312-.025.469.139-.071.277-.147.418-.213a14.084,14.084,0,0,0,5.355-5.316A7.971,7.971,0,0,0,41,15Z" style="fill:#dd4a43"/>
<path d="M41.418,22.787l.028-.014-.028.014c-.137.077-.279.142-.418.213h0c.131.085.266.167.394.256a14.084,14.084,0,0,0,7.283,1.98,7.957,7.957,0,0,0-1.9-7.765A14.084,14.084,0,0,1,41.418,22.787Z" style="fill:#7ea82d"/>
<path d="M40.974,23.5v-.031c0-.157.017-.312.025-.469-.139.071-.277.147-.418.213a14.084,14.084,0,0,0-5.355,5.316A7.926,7.926,0,0,0,42.9,30.763a14.087,14.087,0,0,1-1.926-7.294Z" style="fill:#7ea82d"/>
</g>
</svg>