<?xml version="1.0" ?>
<!-- Uploaded to: SVG Repo, www.svgrepo.com, Generator: SVG Repo Mixer Tools -->
<svg width="800px" height="800px" viewBox="0 0 64 64" xmlns="http://www.w3.org/2000/svg">
<g id="flat">
<rect height="52" style="fill:#dd4a43" width="42" x="11" y="9"/>
<polygon points="53 23 15 61 53 61 53 23" style="fill:#d13e37"/>
<polygon points="42 51 36.118 42 41 42 34.812 32 39 32 32 21 25 32 29.187 32 23 42 27.882 42 22 51 42 51" style="fill:#7ea82d"/>
<polygon points="35.316 14.949 34.684 13.051 33 13.612 33 12 31 12 31 13.612 29.316 13.051 28.684 14.949 30.442 15.535 29.168 17.445 30.832 18.555 32 16.803 33.168 18.555 34.832 17.445 33.558 15.535 35.316 14.949" style="fill:#fdb62f"/>
<rect height="6" style="fill:#80421c" width="4" x="30" y="51"/>
<rect height="2" style="fill:#fdb62f" width="2" x="31" y="27"/>
<rect height="2" style="fill:#fdb62f" width="2" x="29" y="37"/>
<rect height="2" style="fill:#fdb62f" width="2" x="35" y="44"/>
<rect height="2" style="fill:#fdb62f" width="2" x="28" y="46"/>
<rect height="2" style="fill:#ebebe8" width="2" x="21" y="15"/>
<rect height="2" style="fill:#ebebe8" width="2" x="45" y="19"/>
<rect height="2" style="fill:#ebebe8" width="2" x="19" y="27"/>
<rect height="2" style="fill:#ebebe8" width="2" x="44" y="35"/>
<rect height="2" style="fill:#ebebe8" width="2" x="47" y="45"/>
<rect height="2" style="fill:#ebebe8" width="2" x="15" y="43"/>
<polygon points="11 9 49 3 49 9 11 9" style="fill:#e3e3e1"/>
<rect height="2" style="fill:#e66b65" width="2" x="14" y="12"/>
<rect height="10" style="fill:#e66b65" width="2" x="14" y="16"/>
<rect height="2" style="fill:#70320f" width="4" x="30" y="51"/>
</g>
</svg>