<?xml version="1.0" ?>
<!-- Uploaded to: SVG Repo, www.svgrepo.com, Generator: SVG Repo Mixer Tools -->
<svg width="800px" height="800px" viewBox="0 0 64 64" xmlns="http://www.w3.org/2000/svg">
<g id="flat">
<path d="M61,54.361h0a2.642,2.642,0,0,0-1.064-2.118L57,50.061V29A16,16,0,0,0,41,13h0l4-8.541-2-.991a4.5,4.5,0,0,0-4,0h0a4.5,4.5,0,0,1-4,0h0a4.5,4.5,0,0,0-4,0l-2,.991L33,13h0A16,16,0,0,0,17,29V50l-2.952,2.239A2.652,2.652,0,0,0,13,54.35h0A2.649,2.649,0,0,0,15.65,57H58.361A2.64,2.64,0,0,0,61,54.361Z" style="fill:#dd4a43"/>
<path d="M59.936,52.243,57,50.061V29a15.941,15.941,0,0,0-5.024-11.621C47.61,39.978,31.091,51.6,20.692,57H58.361a2.639,2.639,0,0,0,1.575-4.757Z" style="fill:#d13e37"/>
<path d="M41,14H33a1,1,0,0,1,0-2h8a1,1,0,0,1,0,2Z" style="fill:#7a4321"/>
<path d="M35.692,24.552l-.077-.117a9.649,9.649,0,0,1,1.2-12.142A1,1,0,0,1,38.526,13a9.36,9.36,0,0,0,4.706,8.109l1.79,1.023-.992,1.737-1.79-1.023a11.369,11.369,0,0,1-5.4-7.216,7.651,7.651,0,0,0,.444,7.7l.079.12Z" style="fill:#7a4321"/>
<polyline points="29 45 29 61 5 61 5 45" style="fill:#7ea82d"/>
<rect height="6" style="fill:#7ea82d" width="28" x="3" y="39"/>
<polygon points="11 31 17 39 10 39 6 34 10 34 11 31" style="fill:#d13e37"/>
<polygon points="23 31 17 39 24 39 28 34 24 34 23 31" style="fill:#b5362f"/>
<rect height="3" style="fill:#729c22" width="24" x="5" y="45"/>
<rect height="22" style="fill:#dd4a43" width="6" x="14" y="39"/>
<path d="M22.347,26.25l-1.938-.5a12.955,12.955,0,0,1,3.991-6.5l1.325,1.5A10.942,10.942,0,0,0,22.347,26.25Z" style="fill:#e66b65"/>
<path d="M26.919,19.832l-1.107-1.665A12.955,12.955,0,0,1,27.8,17.084l.8,1.832A10.919,10.919,0,0,0,26.919,19.832Z" style="fill:#e66b65"/>
<rect height="6" style="fill:#95c43b" width="2" x="8" y="52"/>
<rect height="2" style="fill:#95c43b" width="2" x="8" y="48"/>
</g>
</svg>