<?xml version="1.0" ?>
<!-- Uploaded to: SVG Repo, www.svgrepo.com, Generator: SVG Repo Mixer Tools -->
<svg width="800px" height="800px" viewBox="0 0 64 64" xmlns="http://www.w3.org/2000/svg">
<g id="flat">
<path d="M36.337,22a10,10,0,1,0-9.316-.339c.209.12.424.233.642.339H11a4,4,0,0,0-4,4H7a4,4,0,0,0,4,4H22V41L17.217,55.35A4.2,4.2,0,0,0,17,56.685v.091A4.224,4.224,0,0,0,21.224,61h0a4.056,4.056,0,0,0,3.782-2.587l5.632-14.481A1.46,1.46,0,0,1,32,43h0a1.46,1.46,0,0,1,1.362.932l5.632,14.481A4.056,4.056,0,0,0,42.776,61h.166A4.058,4.058,0,0,0,47,56.942v-.284a4.056,4.056,0,0,0-.208-1.283L42,41V30H53a4,4,0,0,0,4-4h0a4,4,0,0,0-4-4Z" style="fill:#a65c2e"/>
<path d="M53,22H42.053C36.5,32.674,29.446,39.145,20.567,45.3L17.217,55.35A4.2,4.2,0,0,0,17,56.685v.091A4.224,4.224,0,0,0,21.224,61a4.056,4.056,0,0,0,3.782-2.587l5.632-14.481a1.461,1.461,0,0,1,2.724,0l5.632,14.481A4.056,4.056,0,0,0,42.776,61h.166A4.058,4.058,0,0,0,47,56.942v-.284a4.056,4.056,0,0,0-.208-1.283L42,41V30H53a4,4,0,0,0,0-8Z" style="fill:#9c5528"/>
<polygon points="27 22 27 28 32 25 27 22" style="fill:#d13e37"/>
<polygon points="37 22 37 28 32 25 37 22" style="fill:#d13e37"/>
<rect height="8" style="fill:#663318" width="2" x="12" y="22"/>
<rect height="8" style="fill:#663318" width="2" x="16" y="22"/>
<rect height="8" style="fill:#663318" width="2" x="46" y="22"/>
<rect height="8" style="fill:#663318" width="2" x="50" y="22"/>
<polygon points="17.263 55.212 25.049 58.302 25.774 56.438 17.896 53.311 17.263 55.212" style="fill:#663318"/>
<polygon points="18.531 51.408 26.527 54.502 27.252 52.638 19.164 49.508 18.531 51.408" style="fill:#663318"/>
<polygon points="38.821 57.935 46.654 54.96 46.021 53.062 38.111 56.065 38.821 57.935" style="fill:#663318"/>
<polygon points="37.362 54.21 45.366 51.097 44.733 49.198 36.638 52.347 37.362 54.21" style="fill:#663318"/>
<circle cx="27" cy="12" r="2" style="fill:#663318"/>
<circle cx="37" cy="12" r="2" style="fill:#663318"/>
<path d="M32,20a4,4,0,0,1-4-4h2a2,2,0,0,0,4,0h2A4,4,0,0,1,32,20Z" style="fill:#663318"/>
<rect height="2" style="fill:#fdb62f" width="2" x="31" y="30"/>
<rect height="2" style="fill:#fdb62f" width="2" x="31" y="34"/>
<rect height="2" style="fill:#fdb62f" width="2" x="31" y="38"/>
</g>
</svg>