<?xml version="1.0" ?>
<!-- Uploaded to: SVG Repo, www.svgrepo.com, Generator: SVG Repo Mixer Tools -->
<svg width="800px" height="800px" viewBox="0 0 64 64" xmlns="http://www.w3.org/2000/svg">
<g id="flat">
<rect height="43" rx="17" ry="17" style="fill:#fec9a3" width="34" x="15" y="18"/>
<path d="M37.71,33H49V31H15v7a17.924,17.924,0,0,0,12.43-5H37.71Z" style="fill:#fec093"/>
<path d="M40.514,31A16.955,16.955,0,0,1,41,35v9A16.992,16.992,0,0,1,28,60.507,16.942,16.942,0,0,0,49,44V35a16.963,16.963,0,0,0-.493-4Z" style="fill:#fec093"/>
<circle cx="22.5" cy="39.5" r="2.5" style="fill:#7a4321"/>
<circle cx="41.5" cy="39.5" r="2.5" style="fill:#7a4321"/>
<circle cx="22" cy="47" r="3" style="fill:#dd4a43"/>
<circle cx="42" cy="47" r="3" style="fill:#dd4a43"/>
<path d="M32,50a4,4,0,0,1-4-4V45h2v1a2,2,0,0,0,4,0V45h2v1A4,4,0,0,1,32,50Z" style="fill:#7a4321"/>
<path d="M14,33h1a0,0,0,0,1,0,0V43a0,0,0,0,1,0,0H14a5,5,0,0,1-5-5v0A5,5,0,0,1,14,33Z" style="fill:#feb784"/>
<path d="M54,33h1a0,0,0,0,1,0,0V43a0,0,0,0,1,0,0H54a5,5,0,0,1-5-5v0A5,5,0,0,1,54,33Z" style="fill:#feb784" transform="translate(104 76) rotate(180)"/>
<path d="M28,18h5a0,0,0,0,1,0,0v0A18,18,0,0,1,15,36H11a0,0,0,0,1,0,0V35A17,17,0,0,1,28,18Z" style="fill:#fd9a30"/>
<path d="M31,17h4A18,18,0,0,1,53,35v0a0,0,0,0,1,0,0H48A17,17,0,0,1,31,18V17A0,0,0,0,1,31,17Z" style="fill:#fd9a30" transform="translate(84 52) rotate(-180)"/>
<circle cx="12" cy="46" r="3" style="fill:#fd9a30"/>
<circle cx="9" cy="52" r="3" style="fill:#fd9a30"/>
<polygon points="3 57 8 61 8 55 3 57" style="fill:#fd9a30"/>
<circle cx="52" cy="46" r="3" style="fill:#fd9a30"/>
<circle cx="55" cy="52" r="3" style="fill:#fd9a30"/>
<polygon points="61 57 56 61 56 55 61 57" style="fill:#fd9a30"/>
<rect height="14" rx="2" ry="2" style="fill:#e3e3e1" width="44" x="10" y="17"/>
<path d="M27,3H37A14,14,0,0,1,51,17v0a0,0,0,0,1,0,0H13a0,0,0,0,1,0,0v0A14,14,0,0,1,27,3Z" style="fill:#dd4a43"/>
<path d="M37,3H29A14,14,0,0,1,43,17h8A14,14,0,0,0,37,3Z" style="fill:#d13e37"/>
<rect height="8" style="fill:#c9c9c8" width="2" x="31" y="20"/>
<rect height="8" style="fill:#c9c9c8" width="2" x="25" y="20"/>
<rect height="8" style="fill:#c9c9c8" width="2" x="19" y="20"/>
<rect height="8" style="fill:#c9c9c8" width="2" x="43" y="20"/>
<rect height="8" style="fill:#c9c9c8" width="2" x="49" y="20"/>
<rect height="8" style="fill:#c9c9c8" width="2" x="37" y="20"/>
<rect height="4" style="fill:#c9c9c8" width="2" x="13" y="24"/>
<rect height="2" style="fill:#c9c9c8" width="2" x="13" y="20"/>
<path d="M25.693,8.094l-.285-1.98A11.354,11.354,0,0,1,27,6h1V8H27A9.12,9.12,0,0,0,25.693,8.094Z" style="fill:#e66b65"/>
<path d="M18.751,13.4l-1.832-.8a11,11,0,0,1,5.68-5.68l.8,1.832A9,9,0,0,0,18.751,13.4Z" style="fill:#e66b65"/>
</g>
</svg>