<?xml version="1.0" ?>
<!-- Uploaded to: SVG Repo, www.svgrepo.com, Generator: SVG Repo Mixer Tools -->
<svg width="800px" height="800px" viewBox="0 0 64 64" xmlns="http://www.w3.org/2000/svg">
<g id="flat">
<rect height="12" rx="2" ry="2" style="fill:#e3e3e1" width="36" x="14" y="3"/>
<path d="M48,3H46V9a2,2,0,0,1-2,2H14v2a2,2,0,0,0,2,2H48a2,2,0,0,0,2-2V5A2,2,0,0,0,48,3Z" style="fill:#dbdbd9"/>
<path d="M58.557,37.5,47.093,26V15H17.043V45.975A15.025,15.025,0,0,0,32.068,61h0A15.025,15.025,0,0,0,47.093,45.975V40l4.452,4.481a4.948,4.948,0,0,0,7.006.011h0A4.946,4.946,0,0,0,58.557,37.5Z" style="fill:#dd4a43"/>
<path d="M41.471,38.9a3.079,3.079,0,0,0-3.487.339L34.031,37l3.959-2.239a3.037,3.037,0,0,0,3.481.342A2.983,2.983,0,0,0,42.9,33.267a2.944,2.944,0,0,0-.31-2.275,3.076,3.076,0,0,0-4.144-1.1h0a2.982,2.982,0,0,0-1.427,1.837,2.94,2.94,0,0,0-.042,1.3L33,35.286V30.82a3.042,3.042,0,1,0-2,0v4.466l-3.975-2.247a2.94,2.94,0,0,0-.042-1.3A2.987,2.987,0,0,0,25.556,29.9a3.076,3.076,0,0,0-4.144,1.1,2.944,2.944,0,0,0-.31,2.275A2.983,2.983,0,0,0,22.529,35.1h0a3.04,3.04,0,0,0,3.481-.343L29.969,37l-3.952,2.235a3.081,3.081,0,0,0-3.488-.339h0A2.983,2.983,0,0,0,21.1,40.733a2.944,2.944,0,0,0,.31,2.275A3.077,3.077,0,0,0,25.556,44.1a2.982,2.982,0,0,0,1.427-1.837,2.94,2.94,0,0,0,.042-1.3L31,38.714V43.18a3.042,3.042,0,1,0,2,0V38.714l3.975,2.247a2.94,2.94,0,0,0,.042,1.3A2.982,2.982,0,0,0,38.444,44.1h0a3.079,3.079,0,0,0,4.144-1.1,2.944,2.944,0,0,0,.31-2.275A2.988,2.988,0,0,0,41.471,38.9Zm-2.523-6.645a1,1,0,0,1,.481-.613,1.067,1.067,0,0,1,1.436.37.962.962,0,0,1,.1.741,1,1,0,0,1-.481.612,1.063,1.063,0,0,1-1.435-.369A.959.959,0,0,1,38.948,32.251ZM32,27a1,1,0,1,1-1.042,1A1.023,1.023,0,0,1,32,27Zm-7.051,5.992a1.063,1.063,0,0,1-1.435.37,1,1,0,0,1-.481-.613.962.962,0,0,1,.1-.741,1.066,1.066,0,0,1,1.436-.37,1,1,0,0,1,.481.613A.959.959,0,0,1,24.949,32.992Zm.1,8.757a1,1,0,0,1-.481.612,1.062,1.062,0,0,1-1.436-.369.962.962,0,0,1-.1-.741,1,1,0,0,1,.481-.613,1.065,1.065,0,0,1,1.435.37A.959.959,0,0,1,25.052,41.749ZM32,47a1,1,0,1,1,1.042-1A1.023,1.023,0,0,1,32,47Zm8.865-5.008a1.065,1.065,0,0,1-1.436.37,1,1,0,0,1-.481-.613.959.959,0,0,1,.1-.741,1.064,1.064,0,0,1,1.435-.37,1,1,0,0,1,.481.613A.962.962,0,0,1,40.865,41.992Z" style="fill:#e3e3e1"/>
<rect height="2" style="fill:#b0342e" width="4" x="30" y="20"/>
<rect height="2" style="fill:#b0342e" width="4" x="38" y="20"/>
<rect height="2" style="fill:#b0342e" width="4" x="22" y="20"/>
<rect height="2" style="fill:#b0342e" width="4" x="30" y="52"/>
<rect height="2" style="fill:#b0342e" width="4" x="38" y="52"/>
<rect height="2" style="fill:#b0342e" width="4" x="22" y="52"/>
<rect height="9" style="fill:#c9c9c8" width="2" x="33" y="6"/>
<rect height="9" style="fill:#c9c9c8" width="2" x="29" y="6"/>
<rect height="9" style="fill:#c9c9c8" width="2" x="25" y="6"/>
<rect height="9" style="fill:#c9c9c8" width="2" x="21" y="6"/>
<rect height="9" style="fill:#c9c9c8" width="2" x="45" y="6"/>
<rect height="9" style="fill:#c9c9c8" width="2" x="41" y="6"/>
<rect height="9" style="fill:#c9c9c8" width="2" x="37" y="6"/>
<rect height="5" style="fill:#c9c9c8" width="2" x="17" y="10"/>
<rect height="2" style="fill:#c9c9c8" width="2" x="17" y="6"/>
<rect height="3" style="fill:#d13e37" width="30" x="17" y="15"/>
</g>
</svg>