<?xml version="1.0" ?>
<!-- Uploaded to: SVG Repo, www.svgrepo.com, Generator: SVG Repo Mixer Tools -->
<svg width="800px" height="800px" viewBox="0 0 64 64" xmlns="http://www.w3.org/2000/svg">
<g id="flat">
<path d="M51,49l.045.136a27,27,0,1,0-38.09,0L13,49" style="fill:#87ced9"/>
<path d="M12.483,48.644c.157.164.311.332.472.492L13,49h.737C13.316,48.889,12.9,48.772,12.483,48.644Z" style="fill:#71c4d1"/>
<path d="M50.643,10.48A30.53,30.53,0,0,1,29.263,49H51l.045.136a26.984,26.984,0,0,0-.4-38.656Z" style="fill:#71c4d1"/>
<polygon points="55 61 9 61 13 49 51 49 55 61" style="fill:#995023"/>
<path d="M51,49H44.805c-6.012,6.188-14.025,9.846-20.974,12H55Z" style="fill:#80421c"/>
<path d="M11.041,23.305l-1.9-.61a24.037,24.037,0,0,1,7.21-10.875l1.306,1.515A22.038,22.038,0,0,0,11.041,23.305Z" style="fill:#aadde6"/>
<path d="M19.616,11.825l-1.129-1.651A24.1,24.1,0,0,1,21.563,8.39l.874,1.8A22.253,22.253,0,0,0,19.616,11.825Z" style="fill:#aadde6"/>
<rect height="4" style="fill:#ffa230" width="18" x="23" y="53"/>
<polygon points="22 32 16 39 16 49 28 49 28 39 22 32" style="fill:#dd4a43"/>
<rect height="10" style="fill:#d13e37" width="12" x="28" y="39"/>
<rect height="7" style="fill:#70320f" width="4" x="20" y="42"/>
<rect height="3" style="fill:#70320f" width="2" x="31" y="42"/>
<rect height="3" style="fill:#70320f" width="2" x="35" y="42"/>
<rect height="4" style="fill:#ebebe8" width="4" x="30" y="28"/>
<polygon points="46 33 48 33 44 26 40 33 42 33 40 38 42 38 40 44 48 44 46 38 48 38 46 33" style="fill:#ebebe8"/>
<rect height="5" style="fill:#80421c" width="2" x="43" y="44"/>
<rect height="2" style="fill:#ebebe8" width="2" x="28" y="20"/>
<rect height="2" style="fill:#ebebe8" width="2" x="24" y="14"/>
<rect height="2" style="fill:#ebebe8" width="2" x="52" y="28"/>
<rect height="2" style="fill:#ebebe8" width="2" x="47" y="18"/>
<rect height="2" style="fill:#ebebe8" width="2" x="9" y="33"/>
<rect height="2" style="fill:#ebebe8" width="2" x="33" y="7"/>
<rect height="2" style="fill:#ebebe8" width="2" x="37" y="16"/>
<rect height="2" style="fill:#ebebe8" width="2" x="15" y="25"/>
<rect height="2" style="fill:#80421c" width="18" x="23" y="57"/>
<rect height="2" style="fill:#ba3731" width="12" x="28" y="39"/>
<polygon points="22 32 34 32 40 39 28 39 22 32" style="fill:#ebebe8"/>
<rect height="2" style="fill:#70320f" width="2" x="43" y="44"/>
<rect height="2" style="fill:#de6e12" width="18" x="23" y="55"/>
</g>
</svg>