<?xml version="1.0" ?>
<!-- Uploaded to: SVG Repo, www.svgrepo.com, Generator: SVG Repo Mixer Tools -->
<svg width="800px" height="800px" viewBox="0 0 64 64" xmlns="http://www.w3.org/2000/svg">
<g id="flat">
<path d="M32,10a4,4,0,1,1,4-4A4,4,0,0,1,32,10Zm0-6a2,2,0,1,0,2,2A2,2,0,0,0,32,4Z" style="fill:#fd9a30"/>
<path d="M33.429,11.287l8.21,13.136a1.6,1.6,0,0,0,1.027.717l15.361,3.234A1.6,1.6,0,0,1,58.8,31.1L47.609,41.778a1.6,1.6,0,0,0-.475,1.411l2.373,14.75a1.6,1.6,0,0,1-2.287,1.689L32.708,52.467a1.6,1.6,0,0,0-1.416,0L16.78,59.628a1.6,1.6,0,0,1-2.287-1.689l2.373-14.75a1.6,1.6,0,0,0-.475-1.411L5.225,31.123A1.6,1.6,0,0,1,6.016,28.4l16.263-3.253a1.6,1.6,0,0,0,1.081-.784l7.318-13.01A1.6,1.6,0,0,1,33.429,11.287Z" style="fill:#fdb62f"/>
<path d="M23,25l-.721.144L6.016,28.4A1.581,1.581,0,0,0,4.8,29.5L32,37Z" style="fill:#fd9a30"/>
<path d="M42,25l-.361-.577h0l-3.284-5.255-4.926-7.882A1.584,1.584,0,0,0,32,10.54V37Z" style="fill:#fd9a30"/>
<path d="M47,42.358l.609-.58h0l2.961-2.826L58.8,31.1a1.58,1.58,0,0,0,.428-1.609L32,37Z" style="fill:#fd9a30"/>
<path d="M32,52.117l3.887,1.919L47.22,59.628a1.579,1.579,0,0,0,1.645-.141L32,37Z" style="fill:#fd9a30"/>
<path d="M17,42.358,14.493,57.939a1.566,1.566,0,0,0,.5,1.423C18.766,53.924,32,37,32,37Z" style="fill:#fd9a30"/>
</g>
</svg>