<?xml version="1.0" ?>
<!-- Uploaded to: SVG Repo, www.svgrepo.com, Generator: SVG Repo Mixer Tools -->
<svg width="800px" height="800px" viewBox="0 0 64 64" xmlns="http://www.w3.org/2000/svg">
<g id="flat">
<rect height="12" rx="2" ry="2" style="fill:#e3e3e1" width="28" x="19" y="3"/>
<path d="M45,3h-.24c-3.88,7.475-12.142,10.651-18.47,12H45a2,2,0,0,0,2-2V5A2,2,0,0,0,45,3Z" style="fill:#dbdbd9"/>
<path d="M44,15H22V33L9,39.844a11.225,11.225,0,0,0-6,9.932H3A11.224,11.224,0,0,0,14.224,61h.215a11.228,11.228,0,0,0,4.869-1.111l19.03-9.163A10,10,0,0,0,44,41.716Z" style="fill:#dd4a43"/>
<path d="M15.65,60.581,5.98,42.348A1,1,0,0,1,6.4,41h0a1,1,0,0,1,1.35.419L17.419,59.65A1,1,0,0,1,17,61h0A1,1,0,0,1,15.65,60.581Z" style="fill:#7ea82d"/>
<path d="M20.642,58.606,10.248,39.8a1,1,0,0,1,.4-1.358h0A1,1,0,0,1,12,38.833L22.394,57.642A1,1,0,0,1,22,59h0A1,1,0,0,1,20.642,58.606Z" style="fill:#7ea82d"/>
<path d="M39,35a1,1,0,0,1-.707-.293L33,29.414,28.414,34a2,2,0,0,1-2.828,0L22,30.414A1,1,0,0,1,22,29h0a1,1,0,0,1,1.414,0L27,32.586l5.293-5.293a1,1,0,0,1,1.414,0L39,32.586,42.586,29A1,1,0,0,1,44,29h0a1,1,0,0,1,0,1.414l-4.293,4.293A1,1,0,0,1,39,35Z" style="fill:#7ea82d"/>
<path d="M39,27a1,1,0,0,1-.707-.293L33,21.414,28.414,26a2,2,0,0,1-2.828,0L22,22.414A1,1,0,0,1,22,21h0a1,1,0,0,1,1.414,0L27,24.586l5.293-5.293a1,1,0,0,1,1.414,0L39,24.586,42.586,21A1,1,0,0,1,44,21h0a1,1,0,0,1,0,1.414l-4.293,4.293A1,1,0,0,1,39,27Z" style="fill:#7ea82d"/>
<rect height="9" style="fill:#c9c9c8" width="2" x="38" y="6"/>
<rect height="9" style="fill:#c9c9c8" width="2" x="34" y="6"/>
<rect height="9" style="fill:#c9c9c8" width="2" x="30" y="6"/>
<rect height="9" style="fill:#c9c9c8" width="2" x="26" y="6"/>
<rect height="9" style="fill:#c9c9c8" width="2" x="42" y="6"/>
<rect height="5" style="fill:#c9c9c8" width="2" x="22" y="10"/>
<rect height="2" style="fill:#c9c9c8" width="2" x="22" y="6"/>
<path d="M43.465,37.076A11.623,11.623,0,0,0,34,52l.31.665,4.028-1.939A10,10,0,0,0,44,41.716v-4.7Z" style="fill:#7ea82d"/>
<rect height="3" style="fill:#d13e37" width="22" x="22" y="15"/>
</g>
</svg>