<?xml version="1.0" ?>
<!-- Uploaded to: SVG Repo, www.svgrepo.com, Generator: SVG Repo Mixer Tools -->
<svg width="800px" height="800px" viewBox="0 0 64 64" xmlns="http://www.w3.org/2000/svg">
<g id="flat">
<path d="M59.705,27.167a9.674,9.674,0,0,1-1.3-4.834,9.667,9.667,0,0,0-4.834-8.371,9.682,9.682,0,0,1-3.538-3.538h0A9.668,9.668,0,0,0,41.667,5.59,9.664,9.664,0,0,1,36.833,4.3h0a9.664,9.664,0,0,0-9.666,0h0a9.664,9.664,0,0,1-4.834,1.3,9.668,9.668,0,0,0-8.371,4.833h0a9.682,9.682,0,0,1-3.538,3.538A9.667,9.667,0,0,0,5.59,22.333,9.674,9.674,0,0,1,4.3,27.167a9.664,9.664,0,0,0,0,9.666,9.674,9.674,0,0,1,1.3,4.834,9.667,9.667,0,0,0,4.834,8.371,9.682,9.682,0,0,1,3.538,3.538,9.667,9.667,0,0,0,8.371,4.834,9.664,9.664,0,0,1,4.834,1.3,9.664,9.664,0,0,0,9.666,0,9.664,9.664,0,0,1,4.834-1.3,9.667,9.667,0,0,0,8.371-4.834,9.682,9.682,0,0,1,3.538-3.538,9.667,9.667,0,0,0,4.834-8.371,9.674,9.674,0,0,1,1.3-4.834A9.664,9.664,0,0,0,59.705,27.167ZM32,45A13,13,0,1,1,45,32,13,13,0,0,1,32,45Z" style="fill:#7ea82d"/>
<path d="M59.705,27.167a9.674,9.674,0,0,1-1.3-4.834,9.667,9.667,0,0,0-4.834-8.371,9.665,9.665,0,0,1-2.59-2.207,47.614,47.614,0,0,1-6.4,17.021,12.971,12.971,0,0,1-16.826,15.5,63.278,63.278,0,0,1-16.87,6.07,9.65,9.65,0,0,1,3.077,3.229,9.667,9.667,0,0,0,8.371,4.834,9.664,9.664,0,0,1,4.834,1.3,9.664,9.664,0,0,0,9.666,0,9.664,9.664,0,0,1,4.834-1.3,9.667,9.667,0,0,0,8.371-4.834,9.682,9.682,0,0,1,3.538-3.538,9.667,9.667,0,0,0,4.834-8.371,9.674,9.674,0,0,1,1.3-4.834A9.664,9.664,0,0,0,59.705,27.167Z" style="fill:#729c22"/>
<polygon points="25 20 21 32 25 31 28 35 32 20 25 20" style="fill:#b83630"/>
<polygon points="39 20 43 32 39 31 36 35 32 20 39 20" style="fill:#b83630"/>
<path d="M21.172,7.484l-1.39,4.169a2,2,0,0,0,1.677,2.62L28,15l3-4L24.179,6.452A2,2,0,0,0,21.172,7.484Z" style="fill:#d13e37"/>
<path d="M28,15l-6.753,1.5a2,2,0,0,0-1.439,2.654l1.307,3.485A2,2,0,0,0,24.1,23.6L31,19Z" style="fill:#d13e37"/>
<path d="M42.828,7.484l1.39,4.169a2,2,0,0,1-1.677,2.62L36,15l-3-4,6.821-4.548A2,2,0,0,1,42.828,7.484Z" style="fill:#d13e37"/>
<path d="M36,15l6.753,1.5a2,2,0,0,1,1.439,2.654L42.885,22.64A2,2,0,0,1,39.9,23.6L33,19Z" style="fill:#d13e37"/>
<path d="M28,12.97l-3.273-.758A1,1,0,0,1,24,11h0a1,1,0,0,1,1.212-.727l3.273.757a1,1,0,0,1,.727,1.213h0A1,1,0,0,1,28,12.97Z" style="fill:#b3352f"/>
<path d="M24,19h0a1,1,0,0,1,.727-1.212L28,17.03a1,1,0,0,1,1.212.727h0a1,1,0,0,1-.727,1.213l-3.273.757A1,1,0,0,1,24,19Z" style="fill:#b3352f"/>
<rect height="1.999" rx="1" ry="1" style="fill:#b3352f" transform="translate(-1.699 9.455) rotate(-14.05)" width="5.123" x="34.954" y="10.622"/>
<path d="M38.788,19.727l-3.273-.757a1,1,0,0,1-.727-1.213h0A1,1,0,0,1,36,17.03l3.273.758A1,1,0,0,1,40,19h0A1,1,0,0,1,38.788,19.727Z" style="fill:#b3352f"/>
<path d="M54,36H52a6,6,0,0,0,6,6h2A6,6,0,0,0,54,36Z" style="fill:#97c936"/>
<path d="M28,49v2a6,6,0,0,0,6-6V43A6,6,0,0,0,28,49Z" style="fill:#97c936"/>
<path d="M7,15H5a6,6,0,0,0,6,6h2A6,6,0,0,0,7,15Z" style="fill:#97c936"/>
<circle cx="10" cy="33" r="3" style="fill:#dd4a43"/>
<circle cx="52" cy="23" r="3" style="fill:#dd4a43"/>
<circle cx="43" cy="49" r="3" style="fill:#dd4a43"/>
<circle cx="19" cy="47" r="3" style="fill:#dd4a43"/>
<rect height="12" rx="2" ry="2" style="fill:#dd4a43" width="8" x="28" y="9"/>
<rect height="10.63" rx="1" ry="1" style="fill:#d13e37" transform="translate(-0.737 29.376) rotate(-48.814)" width="2.001" x="31" y="10.185"/>
</g>
</svg>