<?xml version="1.0" encoding="utf-8"?>
<!-- Uploaded to: SVG Repo, www.svgrepo.com, Generator: SVG Repo Mixer Tools -->
<svg fill="#000000" width="800px" height="800px" viewBox="0 0 32 32" version="1.1" xmlns="http://www.w3.org/2000/svg">
<title>burning-meteor</title>
<path d="M6.708 1.123c2.541 3.632-3.976 1.617-5.493 0.154 0.066 2.501 6.243 6.217 9.197 4.5 1.813-1.054-1.864-4.347-3.704-4.654v0zM3.214 5.92l0 0 0-0zM16.563 11.586c0.684 4.379 5.394 2.56 6.365 7.638-2.496-1.904-9.721 0.859-6.365-7.638zM12.808 4.697l0.054 0.092c7.511 6.177-0.252 10.934-4.055 3.043 0.987 5.148-4.892 2.759-5.593-1.912-4.035 8.46 7.563 8.512 7.92 14.297 0.202 3.263-4.855 1.243-7.105-3.047 15.221 32.568 46.765-0.782 8.779-12.473zM23.654 15.931c-1.338 3.661 6.356 7.158 0.997 10.631 1.62-2.133 0.148-7.087-5.482-6.81 7.27 4.522 2.64 12.911-1.229 5.814 0.082 2.189 0.748 3.421 1.694 4.020-3.799-0.746-6.678-4.089-6.678-8.106 0-2.437 1.057-4.629 2.736-6.143-0.025-0.913 0.229-2.125 0.871-3.75 0.177 1.132 0.623 1.85 1.204 2.379 1.053-0.487 2.226-0.759 3.461-0.759 2.782 0 5.338 1.167 6.838 3.276l-0-0c2.724 4.718-3.98 1.71-4.413-0.552zM16.506 23.149c2.546 1.378-0.49-3.433-2.114-3.853 2.675-0.275 6.914 3.449 5.703 5.174-0.902 1.285-3.376-0.41-3.589-1.321h0z"></path>
</svg>